<svg xmlns="http://www.w3.org/2000/svg" width="805" height="600"><rect width="805" height="600" x="0" y="0" fill="#FFFFFF" id="background"/><g id="viz" transform="translate(30,20)"><g id="lines" fill="none"><path d="M0,124.44444444444439L251.66666666666666,349.99999999999994L503.3333333333333,37.966101694915245L755,23.333333333333336" stroke="#1f77b4" stroke-width="1" stroke-opacity="0.5"/><path d="M0,93.3333333333334L251.66666666666666,233.33333333333331L503.3333333333333,37.966101694915245L755,23.333333333333336" stroke="#1f77b4" stroke-width="1" stroke-opacity="0.5"/><path d="M0,62.222222222222264L251.66666666666666,280L503.3333333333333,28.474576271186443L755,23.333333333333336" stroke="#1f77b4" stroke-width="1" stroke-opacity="0.5"/><path d="M0,46.666666666666636L251.66666666666666,256.66666666666663L503.3333333333333,47.45762711864407L755,23.333333333333336" stroke="#1f77b4" stroke-width="1" stroke-opacity="0.5"/><path d="M0,108.8888888888889L251.66666666666666,373.3333333333333L503.3333333333333,37.966101694915245L755,23.333333333333336" stroke="#1f77b4" stroke-width="1" stroke-opacity="0.5"/><path d="M0,171.11111111111114L251.66666666666666,443.33333333333326L503.3333333333333,66.44067796610169L755,70.00000000000001" stroke="#1f77b4" stroke-width="1" stroke-opacity="0.5"/><path d="M0,46.666666666666636L251.66666666666666,326.66666666666663L503.3333333333333,37.966101694915245L755,46.666666666666664" stroke="#1f77b4" stroke-width="1" stroke-opacity="0.5"/><path d="M0,108.8888888888889L251.66666666666666,326.66666666666663L503.3333333333333,47.45762711864407L755,23.333333333333336" stroke="#1f77b4" stroke-width="1" stroke-opacity="0.5"/><path d="M0,15.555555555555637L251.66666666666666,209.99999999999994L503.3333333333333,37.966101694915245L755,23.333333333333336" stroke="#1f77b4" stroke-width="1" stroke-opacity="0.5"/><path d="M0,93.3333333333334L251.66666666666666,256.66666666666663L503.3333333333333,47.45762711864407L755,0" stroke="#1f77b4" stroke-width="1" stroke-opacity="0.5"/><path d="M0,171.11111111111114L251.66666666666666,396.66666666666663L503.3333333333333,47.45762711864407L755,23.333333333333336" stroke="#1f77b4" stroke-width="1" stroke-opacity="0.5"/><path d="M0,77.77777777777777L251.66666666666666,326.66666666666663L503.3333333333333,56.949152542372886L755,23.333333333333336" stroke="#1f77b4" stroke-width="1" stroke-opacity="0.5"/><path d="M0,77.77777777777777L251.66666666666666,233.33333333333331L503.3333333333333,37.966101694915245L755,0" stroke="#1f77b4" stroke-width="1" stroke-opacity="0.5"/><path d="M0,0L251.66666666666666,233.33333333333331L503.3333333333333,9.491525423728822L755,0" stroke="#1f77b4" stroke-width="1" stroke-opacity="0.5"/><path d="M0,233.33333333333331L251.66666666666666,466.66666666666663L503.3333333333333,18.983050847457623L755,23.333333333333336" stroke="#1f77b4" stroke-width="1" stroke-opacity="0.5"/><path d="M0,217.7777777777778L251.66666666666666,560L503.3333333333333,47.45762711864407L755,70.00000000000001" stroke="#1f77b4" stroke-width="1" stroke-opacity="0.5"/><path d="M0,171.11111111111114L251.66666666666666,443.33333333333326L503.3333333333333,28.474576271186443L755,70.00000000000001" stroke="#1f77b4" stroke-width="1" stroke-opacity="0.5"/><path d="M0,124.44444444444439L251.66666666666666,349.99999999999994L503.3333333333333,37.966101694915245L755,46.666666666666664" stroke="#1f77b4" stroke-width="1" stroke-opacity="0.5"/><path d="M0,217.7777777777778L251.66666666666666,419.9999999999999L503.3333333333333,66.44067796610169L755,46.666666666666664" stroke="#1f77b4" stroke-width="1" stroke-opacity="0.5"/><path d="M0,124.44444444444439L251.66666666666666,419.9999999999999L503.3333333333333,47.45762711864407L755,46.666666666666664" stroke="#1f77b4" stroke-width="1" stroke-opacity="0.5"/><path d="M0,171.11111111111114L251.66666666666666,326.66666666666663L503.3333333333333,66.44067796610169L755,23.333333333333336" stroke="#1f77b4" stroke-width="1" stroke-opacity="0.5"/><path d="M0,124.44444444444439L251.66666666666666,396.66666666666663L503.3333333333333,47.45762711864407L755,70.00000000000001" stroke="#1f77b4" stroke-width="1" stroke-opacity="0.5"/><path d="M0,46.666666666666636L251.66666666666666,373.3333333333333L503.3333333333333,0L755,23.333333333333336" stroke="#1f77b4" stroke-width="1" stroke-opacity="0.5"/><path d="M0,124.44444444444439L251.66666666666666,303.33333333333326L503.3333333333333,66.44067796610169L755,93.33333333333334" stroke="#1f77b4" stroke-width="1" stroke-opacity="0.5"/><path d="M0,77.77777777777777L251.66666666666666,326.66666666666663L503.3333333333333,85.42372881355931L755,23.333333333333336" stroke="#1f77b4" stroke-width="1" stroke-opacity="0.5"/><path d="M0,108.8888888888889L251.66666666666666,233.33333333333331L503.3333333333333,56.949152542372886L755,23.333333333333336" stroke="#1f77b4" stroke-width="1" stroke-opacity="0.5"/><path d="M0,108.8888888888889L251.66666666666666,326.66666666666663L503.3333333333333,56.949152542372886L755,70.00000000000001" stroke="#1f77b4" stroke-width="1" stroke-opacity="0.5"/><path d="M0,140.00000000000003L251.66666666666666,349.99999999999994L503.3333333333333,47.45762711864407L755,23.333333333333336" stroke="#1f77b4" stroke-width="1" stroke-opacity="0.5"/><path d="M0,140.00000000000003L251.66666666666666,326.66666666666663L503.3333333333333,37.966101694915245L755,23.333333333333336" stroke="#1f77b4" stroke-width="1" stroke-opacity="0.5"/><path d="M0,62.222222222222264L251.66666666666666,280L503.3333333333333,56.949152542372886L755,23.333333333333336" stroke="#1f77b4" stroke-width="1" stroke-opacity="0.5"/><path d="M0,77.77777777777777L251.66666666666666,256.66666666666663L503.3333333333333,56.949152542372886L755,23.333333333333336" stroke="#1f77b4" stroke-width="1" stroke-opacity="0.5"/><path d="M0,171.11111111111114L251.66666666666666,326.66666666666663L503.3333333333333,47.45762711864407L755,70.00000000000001" stroke="#1f77b4" stroke-width="1" stroke-opacity="0.5"/><path d="M0,140.00000000000003L251.66666666666666,489.9999999999999L503.3333333333333,47.45762711864407L755,0" stroke="#1f77b4" stroke-width="1" stroke-opacity="0.5"/><path d="M0,186.66666666666666L251.66666666666666,513.3333333333333L503.3333333333333,37.966101694915245L755,23.333333333333336" stroke="#1f77b4" stroke-width="1" stroke-opacity="0.5"/><path d="M0,93.3333333333334L251.66666666666666,256.66666666666663L503.3333333333333,47.45762711864407L755,0" stroke="#1f77b4" stroke-width="1" stroke-opacity="0.5"/><path d="M0,108.8888888888889L251.66666666666666,280L503.3333333333333,18.983050847457623L755,23.333333333333336" stroke="#1f77b4" stroke-width="1" stroke-opacity="0.5"/><path d="M0,186.66666666666666L251.66666666666666,349.99999999999994L503.3333333333333,28.474576271186443L755,23.333333333333336" stroke="#1f77b4" stroke-width="1" stroke-opacity="0.5"/><path d="M0,93.3333333333334L251.66666666666666,256.66666666666663L503.3333333333333,47.45762711864407L755,0" stroke="#1f77b4" stroke-width="1" stroke-opacity="0.5"/><path d="M0,15.555555555555637L251.66666666666666,233.33333333333331L503.3333333333333,28.474576271186443L755,23.333333333333336" stroke="#1f77b4" stroke-width="1" stroke-opacity="0.5"/><path d="M0,124.44444444444439L251.66666666666666,326.66666666666663L503.3333333333333,47.45762711864407L755,23.333333333333336" stroke="#1f77b4" stroke-width="1" stroke-opacity="0.5"/><path d="M0,108.8888888888889L251.66666666666666,349.99999999999994L503.3333333333333,28.474576271186443L755,46.666666666666664" stroke="#1f77b4" stroke-width="1" stroke-opacity="0.5"/><path d="M0,31.111111111111132L251.66666666666666,69.99999999999994L503.3333333333333,28.474576271186443L755,46.666666666666664" stroke="#1f77b4" stroke-width="1" stroke-opacity="0.5"/><path d="M0,15.555555555555637L251.66666666666666,280L503.3333333333333,28.474576271186443L755,23.333333333333336" stroke="#1f77b4" stroke-width="1" stroke-opacity="0.5"/><path d="M0,108.8888888888889L251.66666666666666,349.99999999999994L503.3333333333333,56.949152542372886L755,116.66666666666667" stroke="#1f77b4" stroke-width="1" stroke-opacity="0.5"/><path d="M0,124.44444444444439L251.66666666666666,419.9999999999999L503.3333333333333,85.42372881355931L755,70.00000000000001" stroke="#1f77b4" stroke-width="1" stroke-opacity="0.5"/><path d="M0,77.77777777777777L251.66666666666666,233.33333333333331L503.3333333333333,37.966101694915245L755,46.666666666666664" stroke="#1f77b4" stroke-width="1" stroke-opacity="0.5"/><path d="M0,124.44444444444439L251.66666666666666,419.9999999999999L503.3333333333333,56.949152542372886L755,23.333333333333336" stroke="#1f77b4" stroke-width="1" stroke-opacity="0.5"/><path d="M0,46.666666666666636L251.66666666666666,280L503.3333333333333,37.966101694915245L755,23.333333333333336" stroke="#1f77b4" stroke-width="1" stroke-opacity="0.5"/><path d="M0,155.55555555555554L251.66666666666666,396.66666666666663L503.3333333333333,47.45762711864407L755,23.333333333333336" stroke="#1f77b4" stroke-width="1" stroke-opacity="0.5"/><path d="M0,108.8888888888889L251.66666666666666,303.33333333333326L503.3333333333333,37.966101694915245L755,23.333333333333336" stroke="#1f77b4" stroke-width="1" stroke-opacity="0.5"/><path d="M0,419.99999999999994L251.66666666666666,280L503.3333333333333,351.1864406779661L755,303.3333333333333" stroke="#ff7f0e" stroke-width="1" stroke-opacity="0.5"/><path d="M0,326.6666666666667L251.66666666666666,280L503.3333333333333,332.20338983050846L755,326.6666666666667" stroke="#ff7f0e" stroke-width="1" stroke-opacity="0.5"/><path d="M0,404.44444444444446L251.66666666666666,256.66666666666663L503.3333333333333,370.1694915254237L755,326.6666666666667" stroke="#ff7f0e" stroke-width="1" stroke-opacity="0.5"/><path d="M0,186.66666666666666L251.66666666666666,69.99999999999994L503.3333333333333,284.7457627118644L755,280" stroke="#ff7f0e" stroke-width="1" stroke-opacity="0.5"/><path d="M0,342.2222222222222L251.66666666666666,186.6666666666666L503.3333333333333,341.69491525423723L755,326.6666666666667" stroke="#ff7f0e" stroke-width="1" stroke-opacity="0.5"/><path d="M0,217.7777777777778L251.66666666666666,186.6666666666666L503.3333333333333,332.20338983050846L755,280" stroke="#ff7f0e" stroke-width="1" stroke-opacity="0.5"/><path d="M0,311.1111111111111L251.66666666666666,303.33333333333326L503.3333333333333,351.1864406779661L755,350" stroke="#ff7f0e" stroke-width="1" stroke-opacity="0.5"/><path d="M0,93.3333333333334L251.66666666666666,93.3333333333333L503.3333333333333,218.30508474576268L755,210" stroke="#ff7f0e" stroke-width="1" stroke-opacity="0.5"/><path d="M0,357.7777777777777L251.66666666666666,209.99999999999994L503.3333333333333,341.69491525423723L755,280" stroke="#ff7f0e" stroke-width="1" stroke-opacity="0.5"/><path d="M0,140.00000000000003L251.66666666666666,163.33333333333334L503.3333333333333,275.2542372881356L755,303.3333333333333" stroke="#ff7f0e" stroke-width="1" stroke-opacity="0.5"/><path d="M0,108.8888888888889L251.66666666666666,0L503.3333333333333,237.28813559322032L755,210" stroke="#ff7f0e" stroke-width="1" stroke-opacity="0.5"/><path d="M0,248.88888888888894L251.66666666666666,233.33333333333331L503.3333333333333,303.728813559322L755,326.6666666666667" stroke="#ff7f0e" stroke-width="1" stroke-opacity="0.5"/><path d="M0,264.44444444444446L251.66666666666666,46.6666666666667L503.3333333333333,284.7457627118644L755,210" stroke="#ff7f0e" stroke-width="1" stroke-opacity="0.5"/><path d="M0,279.99999999999994L251.66666666666666,209.99999999999994L503.3333333333333,351.1864406779661L755,303.3333333333333" stroke="#ff7f0e" stroke-width="1" stroke-opacity="0.5"/><path d="M0,202.22222222222214L251.66666666666666,209.99999999999994L503.3333333333333,246.77966101694915L755,280" stroke="#ff7f0e" stroke-width="1" stroke-opacity="0.5"/><path d="M0,373.3333333333333L251.66666666666666,256.66666666666663L503.3333333333333,322.7118644067797L755,303.3333333333333" stroke="#ff7f0e" stroke-width="1" stroke-opacity="0.5"/><path d="M0,202.22222222222214L251.66666666666666,233.33333333333331L503.3333333333333,332.20338983050846L755,326.6666666666667" stroke="#ff7f0e" stroke-width="1" stroke-opacity="0.5"/><path d="M0,233.33333333333331L251.66666666666666,163.33333333333334L503.3333333333333,294.2372881355932L755,210" stroke="#ff7f0e" stroke-width="1" stroke-opacity="0.5"/><path d="M0,295.55555555555554L251.66666666666666,46.6666666666667L503.3333333333333,332.20338983050846L755,326.6666666666667" stroke="#ff7f0e" stroke-width="1" stroke-opacity="0.5"/><path d="M0,202.22222222222214L251.66666666666666,116.66666666666666L503.3333333333333,275.2542372881356L755,233.33333333333334" stroke="#ff7f0e" stroke-width="1" stroke-opacity="0.5"/><path d="M0,248.88888888888894L251.66666666666666,280L503.3333333333333,360.6779661016949L755,396.6666666666667" stroke="#ff7f0e" stroke-width="1" stroke-opacity="0.5"/><path d="M0,279.99999999999994L251.66666666666666,186.6666666666666L503.3333333333333,284.7457627118644L755,280" stroke="#ff7f0e" stroke-width="1" stroke-opacity="0.5"/><path d="M0,311.1111111111111L251.66666666666666,116.66666666666666L503.3333333333333,370.1694915254237L755,326.6666666666667" stroke="#ff7f0e" stroke-width="1" stroke-opacity="0.5"/><path d="M0,279.99999999999994L251.66666666666666,186.6666666666666L503.3333333333333,351.1864406779661L755,256.66666666666663" stroke="#ff7f0e" stroke-width="1" stroke-opacity="0.5"/><path d="M0,326.6666666666667L251.66666666666666,209.99999999999994L503.3333333333333,313.2203389830508L755,280" stroke="#ff7f0e" stroke-width="1" stroke-opacity="0.5"/><path d="M0,357.7777777777777L251.66666666666666,233.33333333333331L503.3333333333333,322.7118644067797L755,303.3333333333333" stroke="#ff7f0e" stroke-width="1" stroke-opacity="0.5"/><path d="M0,388.8888888888888L251.66666666666666,186.6666666666666L503.3333333333333,360.6779661016949L755,303.3333333333333" stroke="#ff7f0e" stroke-width="1" stroke-opacity="0.5"/><path d="M0,373.3333333333333L251.66666666666666,233.33333333333331L503.3333333333333,379.66101694915255L755,373.3333333333333" stroke="#ff7f0e" stroke-width="1" stroke-opacity="0.5"/><path d="M0,264.44444444444446L251.66666666666666,209.99999999999994L503.3333333333333,332.20338983050846L755,326.6666666666667" stroke="#ff7f0e" stroke-width="1" stroke-opacity="0.5"/><path d="M0,217.7777777777778L251.66666666666666,140L503.3333333333333,237.28813559322032L755,210" stroke="#ff7f0e" stroke-width="1" stroke-opacity="0.5"/><path d="M0,186.66666666666666L251.66666666666666,93.3333333333333L503.3333333333333,265.76271186440675L755,233.33333333333334" stroke="#ff7f0e" stroke-width="1" stroke-opacity="0.5"/><path d="M0,186.66666666666666L251.66666666666666,93.3333333333333L503.3333333333333,256.271186440678L755,210" stroke="#ff7f0e" stroke-width="1" stroke-opacity="0.5"/><path d="M0,233.33333333333331L251.66666666666666,163.33333333333334L503.3333333333333,275.2542372881356L755,256.66666666666663" stroke="#ff7f0e" stroke-width="1" stroke-opacity="0.5"/><path d="M0,264.44444444444446L251.66666666666666,163.33333333333334L503.3333333333333,389.1525423728813L755,350" stroke="#ff7f0e" stroke-width="1" stroke-opacity="0.5"/><path d="M0,171.11111111111114L251.66666666666666,233.33333333333331L503.3333333333333,332.20338983050846L755,326.6666666666667" stroke="#ff7f0e" stroke-width="1" stroke-opacity="0.5"/><path d="M0,264.44444444444446L251.66666666666666,326.66666666666663L503.3333333333333,332.20338983050846L755,350" stroke="#ff7f0e" stroke-width="1" stroke-opacity="0.5"/><path d="M0,373.3333333333333L251.66666666666666,256.66666666666663L503.3333333333333,351.1864406779661L755,326.6666666666667" stroke="#ff7f0e" stroke-width="1" stroke-opacity="0.5"/><path d="M0,311.1111111111111L251.66666666666666,69.99999999999994L503.3333333333333,322.7118644067797L755,280" stroke="#ff7f0e" stroke-width="1" stroke-opacity="0.5"/><path d="M0,202.22222222222214L251.66666666666666,233.33333333333331L503.3333333333333,294.2372881355932L755,280" stroke="#ff7f0e" stroke-width="1" stroke-opacity="0.5"/><path d="M0,186.66666666666666L251.66666666666666,116.66666666666666L503.3333333333333,284.7457627118644L755,280" stroke="#ff7f0e" stroke-width="1" stroke-opacity="0.5"/><path d="M0,186.66666666666666L251.66666666666666,140L503.3333333333333,322.7118644067797L755,256.66666666666663" stroke="#ff7f0e" stroke-width="1" stroke-opacity="0.5"/><path d="M0,279.99999999999994L251.66666666666666,233.33333333333331L503.3333333333333,341.69491525423723L755,303.3333333333333" stroke="#ff7f0e" stroke-width="1" stroke-opacity="0.5"/><path d="M0,233.33333333333331L251.66666666666666,140L503.3333333333333,284.7457627118644L755,256.66666666666663" stroke="#ff7f0e" stroke-width="1" stroke-opacity="0.5"/><path d="M0,108.8888888888889L251.66666666666666,69.99999999999994L503.3333333333333,218.30508474576268L755,210" stroke="#ff7f0e" stroke-width="1" stroke-opacity="0.5"/><path d="M0,202.22222222222214L251.66666666666666,163.33333333333334L503.3333333333333,303.728813559322L755,280" stroke="#ff7f0e" stroke-width="1" stroke-opacity="0.5"/><path d="M0,217.7777777777778L251.66666666666666,233.33333333333331L503.3333333333333,303.728813559322L755,256.66666666666663" stroke="#ff7f0e" stroke-width="1" stroke-opacity="0.5"/><path d="M0,217.7777777777778L251.66666666666666,209.99999999999994L503.3333333333333,303.728813559322L755,280" stroke="#ff7f0e" stroke-width="1" stroke-opacity="0.5"/><path d="M0,295.55555555555554L251.66666666666666,209.99999999999994L503.3333333333333,313.2203389830508L755,280" stroke="#ff7f0e" stroke-width="1" stroke-opacity="0.5"/><path d="M0,124.44444444444439L251.66666666666666,116.66666666666666L503.3333333333333,189.83050847457628L755,233.33333333333334" stroke="#ff7f0e" stroke-width="1" stroke-opacity="0.5"/><path d="M0,217.7777777777778L251.66666666666666,186.6666666666666L503.3333333333333,294.2372881355932L755,280" stroke="#ff7f0e" stroke-width="1" stroke-opacity="0.5"/><path d="M0,311.1111111111111L251.66666666666666,303.33333333333326L503.3333333333333,474.57627118644064L755,560" stroke="#2ca02c" stroke-width="1" stroke-opacity="0.5"/><path d="M0,233.33333333333331L251.66666666666666,163.33333333333334L503.3333333333333,389.1525423728813L755,420" stroke="#2ca02c" stroke-width="1" stroke-opacity="0.5"/><path d="M0,435.55555555555543L251.66666666666666,233.33333333333331L503.3333333333333,465.08474576271186L755,466.6666666666667" stroke="#2ca02c" stroke-width="1" stroke-opacity="0.5"/><path d="M0,311.1111111111111L251.66666666666666,209.99999999999994L503.3333333333333,436.61016949152537L755,396.6666666666667" stroke="#2ca02c" stroke-width="1" stroke-opacity="0.5"/><path d="M0,342.2222222222222L251.66666666666666,233.33333333333331L503.3333333333333,455.59322033898303L755,490.00000000000006" stroke="#2ca02c" stroke-width="1" stroke-opacity="0.5"/><path d="M0,513.3333333333333L251.66666666666666,233.33333333333331L503.3333333333333,531.5254237288135L755,466.6666666666667" stroke="#2ca02c" stroke-width="1" stroke-opacity="0.5"/><path d="M0,93.3333333333334L251.66666666666666,116.66666666666666L503.3333333333333,332.20338983050846L755,373.3333333333333" stroke="#2ca02c" stroke-width="1" stroke-opacity="0.5"/><path d="M0,466.66666666666663L251.66666666666666,209.99999999999994L503.3333333333333,503.05084745762707L755,396.6666666666667" stroke="#2ca02c" stroke-width="1" stroke-opacity="0.5"/><path d="M0,373.3333333333333L251.66666666666666,116.66666666666666L503.3333333333333,455.59322033898303L755,396.6666666666667" stroke="#2ca02c" stroke-width="1" stroke-opacity="0.5"/><path d="M0,451.11111111111114L251.66666666666666,373.3333333333333L503.3333333333333,484.06779661016947L755,560" stroke="#2ca02c" stroke-width="1" stroke-opacity="0.5"/><path d="M0,342.2222222222222L251.66666666666666,280L503.3333333333333,389.1525423728813L755,443.3333333333333" stroke="#2ca02c" stroke-width="1" stroke-opacity="0.5"/><path d="M0,326.6666666666667L251.66666666666666,163.33333333333334L503.3333333333333,408.13559322033893L755,420" stroke="#2ca02c" stroke-width="1" stroke-opacity="0.5"/><path d="M0,388.8888888888888L251.66666666666666,233.33333333333331L503.3333333333333,427.1186440677966L755,466.6666666666667" stroke="#2ca02c" stroke-width="1" stroke-opacity="0.5"/><path d="M0,217.7777777777778L251.66666666666666,116.66666666666666L503.3333333333333,379.66101694915255L755,443.3333333333333" stroke="#2ca02c" stroke-width="1" stroke-opacity="0.5"/><path d="M0,233.33333333333331L251.66666666666666,186.6666666666666L503.3333333333333,389.1525423728813L755,536.6666666666666" stroke="#2ca02c" stroke-width="1" stroke-opacity="0.5"/><path d="M0,326.6666666666667L251.66666666666666,280L503.3333333333333,408.13559322033893L755,513.3333333333333" stroke="#2ca02c" stroke-width="1" stroke-opacity="0.5"/><path d="M0,342.2222222222222L251.66666666666666,233.33333333333331L503.3333333333333,427.1186440677966L755,396.6666666666667" stroke="#2ca02c" stroke-width="1" stroke-opacity="0.5"/><path d="M0,528.8888888888889L251.66666666666666,419.9999999999999L503.3333333333333,541.0169491525423L755,490.00000000000006" stroke="#2ca02c" stroke-width="1" stroke-opacity="0.5"/><path d="M0,528.8888888888889L251.66666666666666,140L503.3333333333333,560L755,513.3333333333333" stroke="#2ca02c" stroke-width="1" stroke-opacity="0.5"/><path d="M0,264.44444444444446L251.66666666666666,46.6666666666667L503.3333333333333,379.66101694915255L755,326.6666666666667" stroke="#2ca02c" stroke-width="1" stroke-opacity="0.5"/><path d="M0,404.44444444444446L251.66666666666666,280L503.3333333333333,446.10169491525426L755,513.3333333333333" stroke="#2ca02c" stroke-width="1" stroke-opacity="0.5"/><path d="M0,202.22222222222214L251.66666666666666,186.6666666666666L503.3333333333333,370.1694915254237L755,443.3333333333333" stroke="#2ca02c" stroke-width="1" stroke-opacity="0.5"/><path d="M0,528.8888888888889L251.66666666666666,186.6666666666666L503.3333333333333,541.0169491525423L755,443.3333333333333" stroke="#2ca02c" stroke-width="1" stroke-opacity="0.5"/><path d="M0,311.1111111111111L251.66666666666666,163.33333333333334L503.3333333333333,370.1694915254237L755,396.6666666666667" stroke="#2ca02c" stroke-width="1" stroke-opacity="0.5"/><path d="M0,373.3333333333333L251.66666666666666,303.33333333333326L503.3333333333333,446.10169491525426L755,466.6666666666667" stroke="#2ca02c" stroke-width="1" stroke-opacity="0.5"/><path d="M0,451.11111111111114L251.66666666666666,280L503.3333333333333,474.57627118644064L755,396.6666666666667" stroke="#2ca02c" stroke-width="1" stroke-opacity="0.5"/><path d="M0,295.55555555555554L251.66666666666666,186.6666666666666L503.3333333333333,360.6779661016949L755,396.6666666666667" stroke="#2ca02c" stroke-width="1" stroke-opacity="0.5"/><path d="M0,279.99999999999994L251.66666666666666,233.33333333333331L503.3333333333333,370.1694915254237L755,396.6666666666667" stroke="#2ca02c" stroke-width="1" stroke-opacity="0.5"/><path d="M0,326.6666666666667L251.66666666666666,186.6666666666666L503.3333333333333,436.61016949152537L755,466.6666666666667" stroke="#2ca02c" stroke-width="1" stroke-opacity="0.5"/><path d="M0,451.11111111111114L251.66666666666666,233.33333333333331L503.3333333333333,455.59322033898303L755,350" stroke="#2ca02c" stroke-width="1" stroke-opacity="0.5"/><path d="M0,482.22222222222223L251.66666666666666,186.6666666666666L503.3333333333333,484.06779661016947L755,420" stroke="#2ca02c" stroke-width="1" stroke-opacity="0.5"/><path d="M0,560L251.66666666666666,419.9999999999999L503.3333333333333,512.542372881356L755,443.3333333333333" stroke="#2ca02c" stroke-width="1" stroke-opacity="0.5"/><path d="M0,326.6666666666667L251.66666666666666,186.6666666666666L503.3333333333333,436.61016949152537L755,490.00000000000006" stroke="#2ca02c" stroke-width="1" stroke-opacity="0.5"/><path d="M0,311.1111111111111L251.66666666666666,186.6666666666666L503.3333333333333,389.1525423728813L755,326.6666666666667" stroke="#2ca02c" stroke-width="1" stroke-opacity="0.5"/><path d="M0,279.99999999999994L251.66666666666666,140L503.3333333333333,436.61016949152537L755,303.3333333333333" stroke="#2ca02c" stroke-width="1" stroke-opacity="0.5"/><path d="M0,528.8888888888889L251.66666666666666,233.33333333333331L503.3333333333333,484.06779661016947L755,513.3333333333333" stroke="#2ca02c" stroke-width="1" stroke-opacity="0.5"/><path d="M0,311.1111111111111L251.66666666666666,326.66666666666663L503.3333333333333,436.61016949152537L755,536.6666666666666" stroke="#2ca02c" stroke-width="1" stroke-opacity="0.5"/><path d="M0,326.6666666666667L251.66666666666666,256.66666666666663L503.3333333333333,427.1186440677966L755,396.6666666666667" stroke="#2ca02c" stroke-width="1" stroke-opacity="0.5"/><path d="M0,264.44444444444446L251.66666666666666,233.33333333333331L503.3333333333333,360.6779661016949L755,396.6666666666667" stroke="#2ca02c" stroke-width="1" stroke-opacity="0.5"/><path d="M0,404.44444444444446L251.66666666666666,256.66666666666663L503.3333333333333,417.6271186440678L755,466.6666666666667" stroke="#2ca02c" stroke-width="1" stroke-opacity="0.5"/><path d="M0,373.3333333333333L251.66666666666666,256.66666666666663L503.3333333333333,436.61016949152537L755,536.6666666666666" stroke="#2ca02c" stroke-width="1" stroke-opacity="0.5"/><path d="M0,404.44444444444446L251.66666666666666,256.66666666666663L503.3333333333333,389.1525423728813L755,513.3333333333333" stroke="#2ca02c" stroke-width="1" stroke-opacity="0.5"/><path d="M0,233.33333333333331L251.66666666666666,163.33333333333334L503.3333333333333,389.1525423728813L755,420" stroke="#2ca02c" stroke-width="1" stroke-opacity="0.5"/><path d="M0,388.8888888888888L251.66666666666666,280L503.3333333333333,465.08474576271186L755,513.3333333333333" stroke="#2ca02c" stroke-width="1" stroke-opacity="0.5"/><path d="M0,373.3333333333333L251.66666666666666,303.33333333333326L503.3333333333333,446.10169491525426L755,560" stroke="#2ca02c" stroke-width="1" stroke-opacity="0.5"/><path d="M0,373.3333333333333L251.66666666666666,233.33333333333331L503.3333333333333,398.64406779661016L755,513.3333333333333" stroke="#2ca02c" stroke-width="1" stroke-opacity="0.5"/><path d="M0,311.1111111111111L251.66666666666666,116.66666666666666L503.3333333333333,379.66101694915255L755,420" stroke="#2ca02c" stroke-width="1" stroke-opacity="0.5"/><path d="M0,342.2222222222222L251.66666666666666,233.33333333333331L503.3333333333333,398.64406779661016L755,443.3333333333333" stroke="#2ca02c" stroke-width="1" stroke-opacity="0.5"/><path d="M0,295.55555555555554L251.66666666666666,326.66666666666663L503.3333333333333,417.6271186440678L755,513.3333333333333" stroke="#2ca02c" stroke-width="1" stroke-opacity="0.5"/><path d="M0,248.88888888888894L251.66666666666666,233.33333333333331L503.3333333333333,389.1525423728813L755,396.6666666666667" stroke="#2ca02c" stroke-width="1" stroke-opacity="0.5"/></g><g><g transform="translate(0,0)" fill="none" font-size="10" font-family="sans-serif" text-anchor="end"><path class="domain" stroke="currentColor" d="M-6,0H0V560H-6"/><g class="tick" opacity="1" transform="translate(0,31.111111111111132)"><line stroke="currentColor" x2="-6"/><text fill="currentColor" x="-9" dy="0.32em">4.5</text></g><g class="tick" opacity="1" transform="translate(0,108.8888888888889)"><line stroke="currentColor" x2="-6"/><text fill="currentColor" x="-9" dy="0.32em">5.0</text></g><g class="tick" opacity="1" transform="translate(0,186.66666666666666)"><line stroke="currentColor" x2="-6"/><text fill="currentColor" x="-9" dy="0.32em">5.5</text></g><g class="tick" opacity="1" transform="translate(0,264.44444444444446)"><line stroke="currentColor" x2="-6"/><text fill="currentColor" x="-9" dy="0.32em">6.0</text></g><g class="tick" opacity="1" transform="translate(0,342.2222222222222)"><line stroke="currentColor" x2="-6"/><text fill="currentColor" x="-9" dy="0.32em">6.5</text></g><g class="tick" opacity="1" transform="translate(0,419.99999999999994)"><line stroke="currentColor" x2="-6"/><text fill="currentColor" x="-9" dy="0.32em">7.0</text></g><g class="tick" opacity="1" transform="translate(0,497.77777777777777)"><line stroke="currentColor" x2="-6"/><text fill="currentColor" x="-9" dy="0.32em">7.5</text></g><text y="-6" text-anchor="start" fill="currentColor">Sepal Length (cm)</text></g><g transform="translate(251.66666666666666,0)" fill="none" font-size="10" font-family="sans-serif" text-anchor="end"><path class="domain" stroke="currentColor" d="M-6,0H0V560H-6"/><g class="tick" opacity="1" transform="translate(0,0)"><line stroke="currentColor" x2="-6"/><text fill="currentColor" x="-9" dy="0.32em">2.0</text></g><g class="tick" opacity="1" transform="translate(0,46.6666666666667)"><line stroke="currentColor" x2="-6"/><text fill="currentColor" x="-9" dy="0.32em">2.2</text></g><g class="tick" opacity="1" transform="translate(0,93.3333333333333)"><line stroke="currentColor" x2="-6"/><text fill="currentColor" x="-9" dy="0.32em">2.4</text></g><g class="tick" opacity="1" transform="translate(0,140)"><line stroke="currentColor" x2="-6"/><text fill="currentColor" x="-9" dy="0.32em">2.6</text></g><g class="tick" opacity="1" transform="translate(0,186.6666666666666)"><line stroke="currentColor" x2="-6"/><text fill="currentColor" x="-9" dy="0.32em">2.8</text></g><g class="tick" opacity="1" transform="translate(0,233.33333333333331)"><line stroke="currentColor" x2="-6"/><text fill="currentColor" x="-9" dy="0.32em">3.0</text></g><g class="tick" opacity="1" transform="translate(0,280)"><line stroke="currentColor" x2="-6"/><text fill="currentColor" x="-9" dy="0.32em">3.2</text></g><g class="tick" opacity="1" transform="translate(0,326.66666666666663)"><line stroke="currentColor" x2="-6"/><text fill="currentColor" x="-9" dy="0.32em">3.4</text></g><g class="tick" opacity="1" transform="translate(0,373.3333333333333)"><line stroke="currentColor" x2="-6"/><text fill="currentColor" x="-9" dy="0.32em">3.6</text></g><g class="tick" opacity="1" transform="translate(0,419.9999999999999)"><line stroke="currentColor" x2="-6"/><text fill="currentColor" x="-9" dy="0.32em">3.8</text></g><g class="tick" opacity="1" transform="translate(0,466.66666666666663)"><line stroke="currentColor" x2="-6"/><text fill="currentColor" x="-9" dy="0.32em">4.0</text></g><g class="tick" opacity="1" transform="translate(0,513.3333333333333)"><line stroke="currentColor" x2="-6"/><text fill="currentColor" x="-9" dy="0.32em">4.2</text></g><g class="tick" opacity="1" transform="translate(0,560)"><line stroke="currentColor" x2="-6"/><text fill="currentColor" x="-9" dy="0.32em">4.4</text></g><text y="-6" text-anchor="start" fill="currentColor">Sepal Width (cm)</text></g><g transform="translate(503.3333333333333,0)" fill="none" font-size="10" font-family="sans-serif" text-anchor="end"><path class="domain" stroke="currentColor" d="M-6,0H0V560H-6"/><g class="tick" opacity="1" transform="translate(0,0)"><line stroke="currentColor" x2="-6"/><text fill="currentColor" x="-9" dy="0.32em">1.0</text></g><g class="tick" opacity="1" transform="translate(0,47.45762711864407)"><line stroke="currentColor" x2="-6"/><text fill="currentColor" x="-9" dy="0.32em">1.5</text></g><g class="tick" opacity="1" transform="translate(0,94.91525423728814)"><line stroke="currentColor" x2="-6"/><text fill="currentColor" x="-9" dy="0.32em">2.0</text></g><g class="tick" opacity="1" transform="translate(0,142.3728813559322)"><line stroke="currentColor" x2="-6"/><text fill="currentColor" x="-9" dy="0.32em">2.5</text></g><g class="tick" opacity="1" transform="translate(0,189.83050847457628)"><line stroke="currentColor" x2="-6"/><text fill="currentColor" x="-9" dy="0.32em">3.0</text></g><g class="tick" opacity="1" transform="translate(0,237.28813559322032)"><line stroke="currentColor" x2="-6"/><text fill="currentColor" x="-9" dy="0.32em">3.5</text></g><g class="tick" opacity="1" transform="translate(0,284.7457627118644)"><line stroke="currentColor" x2="-6"/><text fill="currentColor" x="-9" dy="0.32em">4.0</text></g><g class="tick" opacity="1" transform="translate(0,332.20338983050846)"><line stroke="currentColor" x2="-6"/><text fill="currentColor" x="-9" dy="0.32em">4.5</text></g><g class="tick" opacity="1" transform="translate(0,379.66101694915255)"><line stroke="currentColor" x2="-6"/><text fill="currentColor" x="-9" dy="0.32em">5.0</text></g><g class="tick" opacity="1" transform="translate(0,427.1186440677966)"><line stroke="currentColor" x2="-6"/><text fill="currentColor" x="-9" dy="0.32em">5.5</text></g><g class="tick" opacity="1" transform="translate(0,474.57627118644064)"><line stroke="currentColor" x2="-6"/><text fill="currentColor" x="-9" dy="0.32em">6.0</text></g><g class="tick" opacity="1" transform="translate(0,522.0338983050847)"><line stroke="currentColor" x2="-6"/><text fill="currentColor" x="-9" dy="0.32em">6.5</text></g><text y="-6" text-anchor="start" fill="currentColor">Petal Length (cm)</text></g><g transform="translate(755,0)" fill="none" font-size="10" font-family="sans-serif" text-anchor="end"><path class="domain" stroke="currentColor" d="M-6,0H0V560H-6"/><g class="tick" opacity="1" transform="translate(0,23.333333333333336)"><line stroke="currentColor" x2="-6"/><text fill="currentColor" x="-9" dy="0.32em">0.2</text></g><g class="tick" opacity="1" transform="translate(0,70.00000000000001)"><line stroke="currentColor" x2="-6"/><text fill="currentColor" x="-9" dy="0.32em">0.4</text></g><g class="tick" opacity="1" transform="translate(0,116.66666666666667)"><line stroke="currentColor" x2="-6"/><text fill="currentColor" x="-9" dy="0.32em">0.6</text></g><g class="tick" opacity="1" transform="translate(0,163.33333333333334)"><line stroke="currentColor" x2="-6"/><text fill="currentColor" x="-9" dy="0.32em">0.8</text></g><g class="tick" opacity="1" transform="translate(0,210)"><line stroke="currentColor" x2="-6"/><text fill="currentColor" x="-9" dy="0.32em">1.0</text></g><g class="tick" opacity="1" transform="translate(0,256.66666666666663)"><line stroke="currentColor" x2="-6"/><text fill="currentColor" x="-9" dy="0.32em">1.2</text></g><g class="tick" opacity="1" transform="translate(0,303.3333333333333)"><line stroke="currentColor" x2="-6"/><text fill="currentColor" x="-9" dy="0.32em">1.4</text></g><g class="tick" opacity="1" transform="translate(0,350)"><line stroke="currentColor" x2="-6"/><text fill="currentColor" x="-9" dy="0.32em">1.6</text></g><g class="tick" opacity="1" transform="translate(0,396.6666666666667)"><line stroke="currentColor" x2="-6"/><text fill="currentColor" x="-9" dy="0.32em">1.8</text></g><g class="tick" opacity="1" transform="translate(0,443.3333333333333)"><line stroke="currentColor" x2="-6"/><text fill="currentColor" x="-9" dy="0.32em">2.0</text></g><g class="tick" opacity="1" transform="translate(0,490.00000000000006)"><line stroke="currentColor" x2="-6"/><text fill="currentColor" x="-9" dy="0.32em">2.2</text></g><g class="tick" opacity="1" transform="translate(0,536.6666666666666)"><line stroke="currentColor" x2="-6"/><text fill="currentColor" x="-9" dy="0.32em">2.4</text></g><text y="-6" text-anchor="start" fill="currentColor">Petal Width (cm)</text></g></g></g></svg>