<svg xmlns="http://www.w3.org/2000/svg" width="805" height="600"><rect width="805" height="600" x="0" y="0" fill="#FFFFFF" id="background"/><g id="viz" transform="translate(20,20)"><g id="lines" fill="none"><path d="M0,124.44444444444439L255,349.99999999999994L510,37.966101694915245L765,23.333333333333336" stroke="#1f77b4" stroke-width="1" stroke-opacity="0.5"/><path d="M0,93.3333333333334L255,233.33333333333331L510,37.966101694915245L765,23.333333333333336" stroke="#1f77b4" stroke-width="1" stroke-opacity="0.5"/><path d="M0,62.222222222222264L255,280L510,28.474576271186443L765,23.333333333333336" stroke="#1f77b4" stroke-width="1" stroke-opacity="0.5"/><path d="M0,46.666666666666636L255,256.66666666666663L510,47.45762711864407L765,23.333333333333336" stroke="#1f77b4" stroke-width="1" stroke-opacity="0.5"/><path d="M0,108.8888888888889L255,373.3333333333333L510,37.966101694915245L765,23.333333333333336" stroke="#1f77b4" stroke-width="1" stroke-opacity="0.5"/><path d="M0,171.11111111111114L255,443.33333333333326L510,66.44067796610169L765,70.00000000000001" stroke="#1f77b4" stroke-width="1" stroke-opacity="0.5"/><path d="M0,46.666666666666636L255,326.66666666666663L510,37.966101694915245L765,46.666666666666664" stroke="#1f77b4" stroke-width="1" stroke-opacity="0.5"/><path d="M0,108.8888888888889L255,326.66666666666663L510,47.45762711864407L765,23.333333333333336" stroke="#1f77b4" stroke-width="1" stroke-opacity="0.5"/><path d="M0,15.555555555555637L255,209.99999999999994L510,37.966101694915245L765,23.333333333333336" stroke="#1f77b4" stroke-width="1" stroke-opacity="0.5"/><path d="M0,93.3333333333334L255,256.66666666666663L510,47.45762711864407L765,0" stroke="#1f77b4" stroke-width="1" stroke-opacity="0.5"/><path d="M0,171.11111111111114L255,396.66666666666663L510,47.45762711864407L765,23.333333333333336" stroke="#1f77b4" stroke-width="1" stroke-opacity="0.5"/><path d="M0,77.77777777777777L255,326.66666666666663L510,56.949152542372886L765,23.333333333333336" stroke="#1f77b4" stroke-width="1" stroke-opacity="0.5"/><path d="M0,77.77777777777777L255,233.33333333333331L510,37.966101694915245L765,0" stroke="#1f77b4" stroke-width="1" stroke-opacity="0.5"/><path d="M0,0L255,233.33333333333331L510,9.491525423728822L765,0" stroke="#1f77b4" stroke-width="1" stroke-opacity="0.5"/><path d="M0,233.33333333333331L255,466.66666666666663L510,18.983050847457623L765,23.333333333333336" stroke="#1f77b4" stroke-width="1" stroke-opacity="0.5"/><path d="M0,217.7777777777778L255,560L510,47.45762711864407L765,70.00000000000001" stroke="#1f77b4" stroke-width="1" stroke-opacity="0.5"/><path d="M0,171.11111111111114L255,443.33333333333326L510,28.474576271186443L765,70.00000000000001" stroke="#1f77b4" stroke-width="1" stroke-opacity="0.5"/><path d="M0,124.44444444444439L255,349.99999999999994L510,37.966101694915245L765,46.666666666666664" stroke="#1f77b4" stroke-width="1" stroke-opacity="0.5"/><path d="M0,217.7777777777778L255,419.9999999999999L510,66.44067796610169L765,46.666666666666664" stroke="#1f77b4" stroke-width="1" stroke-opacity="0.5"/><path d="M0,124.44444444444439L255,419.9999999999999L510,47.45762711864407L765,46.666666666666664" stroke="#1f77b4" stroke-width="1" stroke-opacity="0.5"/><path d="M0,171.11111111111114L255,326.66666666666663L510,66.44067796610169L765,23.333333333333336" stroke="#1f77b4" stroke-width="1" stroke-opacity="0.5"/><path d="M0,124.44444444444439L255,396.66666666666663L510,47.45762711864407L765,70.00000000000001" stroke="#1f77b4" stroke-width="1" stroke-opacity="0.5"/><path d="M0,46.666666666666636L255,373.3333333333333L510,0L765,23.333333333333336" stroke="#1f77b4" stroke-width="1" stroke-opacity="0.5"/><path d="M0,124.44444444444439L255,303.33333333333326L510,66.44067796610169L765,93.33333333333334" stroke="#1f77b4" stroke-width="1" stroke-opacity="0.5"/><path d="M0,77.77777777777777L255,326.66666666666663L510,85.42372881355931L765,23.333333333333336" stroke="#1f77b4" stroke-width="1" stroke-opacity="0.5"/><path d="M0,108.8888888888889L255,233.33333333333331L510,56.949152542372886L765,23.333333333333336" stroke="#1f77b4" stroke-width="1" stroke-opacity="0.5"/><path d="M0,108.8888888888889L255,326.66666666666663L510,56.949152542372886L765,70.00000000000001" stroke="#1f77b4" stroke-width="1" stroke-opacity="0.5"/><path d="M0,140.00000000000003L255,349.99999999999994L510,47.45762711864407L765,23.333333333333336" stroke="#1f77b4" stroke-width="1" stroke-opacity="0.5"/><path d="M0,140.00000000000003L255,326.66666666666663L510,37.966101694915245L765,23.333333333333336" stroke="#1f77b4" stroke-width="1" stroke-opacity="0.5"/><path d="M0,62.222222222222264L255,280L510,56.949152542372886L765,23.333333333333336" stroke="#1f77b4" stroke-width="1" stroke-opacity="0.5"/><path d="M0,77.77777777777777L255,256.66666666666663L510,56.949152542372886L765,23.333333333333336" stroke="#1f77b4" stroke-width="1" stroke-opacity="0.5"/><path d="M0,171.11111111111114L255,326.66666666666663L510,47.45762711864407L765,70.00000000000001" stroke="#1f77b4" stroke-width="1" stroke-opacity="0.5"/><path d="M0,140.00000000000003L255,489.9999999999999L510,47.45762711864407L765,0" stroke="#1f77b4" stroke-width="1" stroke-opacity="0.5"/><path d="M0,186.66666666666666L255,513.3333333333333L510,37.966101694915245L765,23.333333333333336" stroke="#1f77b4" stroke-width="1" stroke-opacity="0.5"/><path d="M0,93.3333333333334L255,256.66666666666663L510,47.45762711864407L765,0" stroke="#1f77b4" stroke-width="1" stroke-opacity="0.5"/><path d="M0,108.8888888888889L255,280L510,18.983050847457623L765,23.333333333333336" stroke="#1f77b4" stroke-width="1" stroke-opacity="0.5"/><path d="M0,186.66666666666666L255,349.99999999999994L510,28.474576271186443L765,23.333333333333336" stroke="#1f77b4" stroke-width="1" stroke-opacity="0.5"/><path d="M0,93.3333333333334L255,256.66666666666663L510,47.45762711864407L765,0" stroke="#1f77b4" stroke-width="1" stroke-opacity="0.5"/><path d="M0,15.555555555555637L255,233.33333333333331L510,28.474576271186443L765,23.333333333333336" stroke="#1f77b4" stroke-width="1" stroke-opacity="0.5"/><path d="M0,124.44444444444439L255,326.66666666666663L510,47.45762711864407L765,23.333333333333336" stroke="#1f77b4" stroke-width="1" stroke-opacity="0.5"/><path d="M0,108.8888888888889L255,349.99999999999994L510,28.474576271186443L765,46.666666666666664" stroke="#1f77b4" stroke-width="1" stroke-opacity="0.5"/><path d="M0,31.111111111111132L255,69.99999999999994L510,28.474576271186443L765,46.666666666666664" stroke="#1f77b4" stroke-width="1" stroke-opacity="0.5"/><path d="M0,15.555555555555637L255,280L510,28.474576271186443L765,23.333333333333336" stroke="#1f77b4" stroke-width="1" stroke-opacity="0.5"/><path d="M0,108.8888888888889L255,349.99999999999994L510,56.949152542372886L765,116.66666666666667" stroke="#1f77b4" stroke-width="1" stroke-opacity="0.5"/><path d="M0,124.44444444444439L255,419.9999999999999L510,85.42372881355931L765,70.00000000000001" stroke="#1f77b4" stroke-width="1" stroke-opacity="0.5"/><path d="M0,77.77777777777777L255,233.33333333333331L510,37.966101694915245L765,46.666666666666664" stroke="#1f77b4" stroke-width="1" stroke-opacity="0.5"/><path d="M0,124.44444444444439L255,419.9999999999999L510,56.949152542372886L765,23.333333333333336" stroke="#1f77b4" stroke-width="1" stroke-opacity="0.5"/><path d="M0,46.666666666666636L255,280L510,37.966101694915245L765,23.333333333333336" stroke="#1f77b4" stroke-width="1" stroke-opacity="0.5"/><path d="M0,155.55555555555554L255,396.66666666666663L510,47.45762711864407L765,23.333333333333336" stroke="#1f77b4" stroke-width="1" stroke-opacity="0.5"/><path d="M0,108.8888888888889L255,303.33333333333326L510,37.966101694915245L765,23.333333333333336" stroke="#1f77b4" stroke-width="1" stroke-opacity="0.5"/><path d="M0,419.99999999999994L255,280L510,351.1864406779661L765,303.3333333333333" stroke="#ff7f0e" stroke-width="1" stroke-opacity="0.5"/><path d="M0,326.6666666666667L255,280L510,332.20338983050846L765,326.6666666666667" stroke="#ff7f0e" stroke-width="1" stroke-opacity="0.5"/><path d="M0,404.44444444444446L255,256.66666666666663L510,370.1694915254237L765,326.6666666666667" stroke="#ff7f0e" stroke-width="1" stroke-opacity="0.5"/><path d="M0,186.66666666666666L255,69.99999999999994L510,284.7457627118644L765,280" stroke="#ff7f0e" stroke-width="1" stroke-opacity="0.5"/><path d="M0,342.2222222222222L255,186.6666666666666L510,341.69491525423723L765,326.6666666666667" stroke="#ff7f0e" stroke-width="1" stroke-opacity="0.5"/><path d="M0,217.7777777777778L255,186.6666666666666L510,332.20338983050846L765,280" stroke="#ff7f0e" stroke-width="1" stroke-opacity="0.5"/><path d="M0,311.1111111111111L255,303.33333333333326L510,351.1864406779661L765,350" stroke="#ff7f0e" stroke-width="1" stroke-opacity="0.5"/><path d="M0,93.3333333333334L255,93.3333333333333L510,218.30508474576268L765,210" stroke="#ff7f0e" stroke-width="1" stroke-opacity="0.5"/><path d="M0,357.7777777777777L255,209.99999999999994L510,341.69491525423723L765,280" stroke="#ff7f0e" stroke-width="1" stroke-opacity="0.5"/><path d="M0,140.00000000000003L255,163.33333333333334L510,275.2542372881356L765,303.3333333333333" stroke="#ff7f0e" stroke-width="1" stroke-opacity="0.5"/><path d="M0,108.8888888888889L255,0L510,237.28813559322032L765,210" stroke="#ff7f0e" stroke-width="1" stroke-opacity="0.5"/><path d="M0,248.88888888888894L255,233.33333333333331L510,303.728813559322L765,326.6666666666667" stroke="#ff7f0e" stroke-width="1" stroke-opacity="0.5"/><path d="M0,264.44444444444446L255,46.6666666666667L510,284.7457627118644L765,210" stroke="#ff7f0e" stroke-width="1" stroke-opacity="0.5"/><path d="M0,279.99999999999994L255,209.99999999999994L510,351.1864406779661L765,303.3333333333333" stroke="#ff7f0e" stroke-width="1" stroke-opacity="0.5"/><path d="M0,202.22222222222214L255,209.99999999999994L510,246.77966101694915L765,280" stroke="#ff7f0e" stroke-width="1" stroke-opacity="0.5"/><path d="M0,373.3333333333333L255,256.66666666666663L510,322.7118644067797L765,303.3333333333333" stroke="#ff7f0e" stroke-width="1" stroke-opacity="0.5"/><path d="M0,202.22222222222214L255,233.33333333333331L510,332.20338983050846L765,326.6666666666667" stroke="#ff7f0e" stroke-width="1" stroke-opacity="0.5"/><path d="M0,233.33333333333331L255,163.33333333333334L510,294.2372881355932L765,210" stroke="#ff7f0e" stroke-width="1" stroke-opacity="0.5"/><path d="M0,295.55555555555554L255,46.6666666666667L510,332.20338983050846L765,326.6666666666667" stroke="#ff7f0e" stroke-width="1" stroke-opacity="0.5"/><path d="M0,202.22222222222214L255,116.66666666666666L510,275.2542372881356L765,233.33333333333334" stroke="#ff7f0e" stroke-width="1" stroke-opacity="0.5"/><path d="M0,248.88888888888894L255,280L510,360.6779661016949L765,396.6666666666667" stroke="#ff7f0e" stroke-width="1" stroke-opacity="0.5"/><path d="M0,279.99999999999994L255,186.6666666666666L510,284.7457627118644L765,280" stroke="#ff7f0e" stroke-width="1" stroke-opacity="0.5"/><path d="M0,311.1111111111111L255,116.66666666666666L510,370.1694915254237L765,326.6666666666667" stroke="#ff7f0e" stroke-width="1" stroke-opacity="0.5"/><path d="M0,279.99999999999994L255,186.6666666666666L510,351.1864406779661L765,256.66666666666663" stroke="#ff7f0e" stroke-width="1" stroke-opacity="0.5"/><path d="M0,326.6666666666667L255,209.99999999999994L510,313.2203389830508L765,280" stroke="#ff7f0e" stroke-width="1" stroke-opacity="0.5"/><path d="M0,357.7777777777777L255,233.33333333333331L510,322.7118644067797L765,303.3333333333333" stroke="#ff7f0e" stroke-width="1" stroke-opacity="0.5"/><path d="M0,388.8888888888888L255,186.6666666666666L510,360.6779661016949L765,303.3333333333333" stroke="#ff7f0e" stroke-width="1" stroke-opacity="0.5"/><path d="M0,373.3333333333333L255,233.33333333333331L510,379.66101694915255L765,373.3333333333333" stroke="#ff7f0e" stroke-width="1" stroke-opacity="0.5"/><path d="M0,264.44444444444446L255,209.99999999999994L510,332.20338983050846L765,326.6666666666667" stroke="#ff7f0e" stroke-width="1" stroke-opacity="0.5"/><path d="M0,217.7777777777778L255,140L510,237.28813559322032L765,210" stroke="#ff7f0e" stroke-width="1" stroke-opacity="0.5"/><path d="M0,186.66666666666666L255,93.3333333333333L510,265.76271186440675L765,233.33333333333334" stroke="#ff7f0e" stroke-width="1" stroke-opacity="0.5"/><path d="M0,186.66666666666666L255,93.3333333333333L510,256.271186440678L765,210" stroke="#ff7f0e" stroke-width="1" stroke-opacity="0.5"/><path d="M0,233.33333333333331L255,163.33333333333334L510,275.2542372881356L765,256.66666666666663" stroke="#ff7f0e" stroke-width="1" stroke-opacity="0.5"/><path d="M0,264.44444444444446L255,163.33333333333334L510,389.1525423728813L765,350" stroke="#ff7f0e" stroke-width="1" stroke-opacity="0.5"/><path d="M0,171.11111111111114L255,233.33333333333331L510,332.20338983050846L765,326.6666666666667" stroke="#ff7f0e" stroke-width="1" stroke-opacity="0.5"/><path d="M0,264.44444444444446L255,326.66666666666663L510,332.20338983050846L765,350" stroke="#ff7f0e" stroke-width="1" stroke-opacity="0.5"/><path d="M0,373.3333333333333L255,256.66666666666663L510,351.1864406779661L765,326.6666666666667" stroke="#ff7f0e" stroke-width="1" stroke-opacity="0.5"/><path d="M0,311.1111111111111L255,69.99999999999994L510,322.7118644067797L765,280" stroke="#ff7f0e" stroke-width="1" stroke-opacity="0.5"/><path d="M0,202.22222222222214L255,233.33333333333331L510,294.2372881355932L765,280" stroke="#ff7f0e" stroke-width="1" stroke-opacity="0.5"/><path d="M0,186.66666666666666L255,116.66666666666666L510,284.7457627118644L765,280" stroke="#ff7f0e" stroke-width="1" stroke-opacity="0.5"/><path d="M0,186.66666666666666L255,140L510,322.7118644067797L765,256.66666666666663" stroke="#ff7f0e" stroke-width="1" stroke-opacity="0.5"/><path d="M0,279.99999999999994L255,233.33333333333331L510,341.69491525423723L765,303.3333333333333" stroke="#ff7f0e" stroke-width="1" stroke-opacity="0.5"/><path d="M0,233.33333333333331L255,140L510,284.7457627118644L765,256.66666666666663" stroke="#ff7f0e" stroke-width="1" stroke-opacity="0.5"/><path d="M0,108.8888888888889L255,69.99999999999994L510,218.30508474576268L765,210" stroke="#ff7f0e" stroke-width="1" stroke-opacity="0.5"/><path d="M0,202.22222222222214L255,163.33333333333334L510,303.728813559322L765,280" stroke="#ff7f0e" stroke-width="1" stroke-opacity="0.5"/><path d="M0,217.7777777777778L255,233.33333333333331L510,303.728813559322L765,256.66666666666663" stroke="#ff7f0e" stroke-width="1" stroke-opacity="0.5"/><path d="M0,217.7777777777778L255,209.99999999999994L510,303.728813559322L765,280" stroke="#ff7f0e" stroke-width="1" stroke-opacity="0.5"/><path d="M0,295.55555555555554L255,209.99999999999994L510,313.2203389830508L765,280" stroke="#ff7f0e" stroke-width="1" stroke-opacity="0.5"/><path d="M0,124.44444444444439L255,116.66666666666666L510,189.83050847457628L765,233.33333333333334" stroke="#ff7f0e" stroke-width="1" stroke-opacity="0.5"/><path d="M0,217.7777777777778L255,186.6666666666666L510,294.2372881355932L765,280" stroke="#ff7f0e" stroke-width="1" stroke-opacity="0.5"/><path d="M0,311.1111111111111L255,303.33333333333326L510,474.57627118644064L765,560" stroke="#2ca02c" stroke-width="1" stroke-opacity="0.5"/><path d="M0,233.33333333333331L255,163.33333333333334L510,389.1525423728813L765,420" stroke="#2ca02c" stroke-width="1" stroke-opacity="0.5"/><path d="M0,435.55555555555543L255,233.33333333333331L510,465.08474576271186L765,466.6666666666667" stroke="#2ca02c" stroke-width="1" stroke-opacity="0.5"/><path d="M0,311.1111111111111L255,209.99999999999994L510,436.61016949152537L765,396.6666666666667" stroke="#2ca02c" stroke-width="1" stroke-opacity="0.5"/><path d="M0,342.2222222222222L255,233.33333333333331L510,455.59322033898303L765,490.00000000000006" stroke="#2ca02c" stroke-width="1" stroke-opacity="0.5"/><path d="M0,513.3333333333333L255,233.33333333333331L510,531.5254237288135L765,466.6666666666667" stroke="#2ca02c" stroke-width="1" stroke-opacity="0.5"/><path d="M0,93.3333333333334L255,116.66666666666666L510,332.20338983050846L765,373.3333333333333" stroke="#2ca02c" stroke-width="1" stroke-opacity="0.5"/><path d="M0,466.66666666666663L255,209.99999999999994L510,503.05084745762707L765,396.6666666666667" stroke="#2ca02c" stroke-width="1" stroke-opacity="0.5"/><path d="M0,373.3333333333333L255,116.66666666666666L510,455.59322033898303L765,396.6666666666667" stroke="#2ca02c" stroke-width="1" stroke-opacity="0.5"/><path d="M0,451.11111111111114L255,373.3333333333333L510,484.06779661016947L765,560" stroke="#2ca02c" stroke-width="1" stroke-opacity="0.5"/><path d="M0,342.2222222222222L255,280L510,389.1525423728813L765,443.3333333333333" stroke="#2ca02c" stroke-width="1" stroke-opacity="0.5"/><path d="M0,326.6666666666667L255,163.33333333333334L510,408.13559322033893L765,420" stroke="#2ca02c" stroke-width="1" stroke-opacity="0.5"/><path d="M0,388.8888888888888L255,233.33333333333331L510,427.1186440677966L765,466.6666666666667" stroke="#2ca02c" stroke-width="1" stroke-opacity="0.5"/><path d="M0,217.7777777777778L255,116.66666666666666L510,379.66101694915255L765,443.3333333333333" stroke="#2ca02c" stroke-width="1" stroke-opacity="0.5"/><path d="M0,233.33333333333331L255,186.6666666666666L510,389.1525423728813L765,536.6666666666666" stroke="#2ca02c" stroke-width="1" stroke-opacity="0.5"/><path d="M0,326.6666666666667L255,280L510,408.13559322033893L765,513.3333333333333" stroke="#2ca02c" stroke-width="1" stroke-opacity="0.5"/><path d="M0,342.2222222222222L255,233.33333333333331L510,427.1186440677966L765,396.6666666666667" stroke="#2ca02c" stroke-width="1" stroke-opacity="0.5"/><path d="M0,528.8888888888889L255,419.9999999999999L510,541.0169491525423L765,490.00000000000006" stroke="#2ca02c" stroke-width="1" stroke-opacity="0.5"/><path d="M0,528.8888888888889L255,140L510,560L765,513.3333333333333" stroke="#2ca02c" stroke-width="1" stroke-opacity="0.5"/><path d="M0,264.44444444444446L255,46.6666666666667L510,379.66101694915255L765,326.6666666666667" stroke="#2ca02c" stroke-width="1" stroke-opacity="0.5"/><path d="M0,404.44444444444446L255,280L510,446.10169491525426L765,513.3333333333333" stroke="#2ca02c" stroke-width="1" stroke-opacity="0.5"/><path d="M0,202.22222222222214L255,186.6666666666666L510,370.1694915254237L765,443.3333333333333" stroke="#2ca02c" stroke-width="1" stroke-opacity="0.5"/><path d="M0,528.8888888888889L255,186.6666666666666L510,541.0169491525423L765,443.3333333333333" stroke="#2ca02c" stroke-width="1" stroke-opacity="0.5"/><path d="M0,311.1111111111111L255,163.33333333333334L510,370.1694915254237L765,396.6666666666667" stroke="#2ca02c" stroke-width="1" stroke-opacity="0.5"/><path d="M0,373.3333333333333L255,303.33333333333326L510,446.10169491525426L765,466.6666666666667" stroke="#2ca02c" stroke-width="1" stroke-opacity="0.5"/><path d="M0,451.11111111111114L255,280L510,474.57627118644064L765,396.6666666666667" stroke="#2ca02c" stroke-width="1" stroke-opacity="0.5"/><path d="M0,295.55555555555554L255,186.6666666666666L510,360.6779661016949L765,396.6666666666667" stroke="#2ca02c" stroke-width="1" stroke-opacity="0.5"/><path d="M0,279.99999999999994L255,233.33333333333331L510,370.1694915254237L765,396.6666666666667" stroke="#2ca02c" stroke-width="1" stroke-opacity="0.5"/><path d="M0,326.6666666666667L255,186.6666666666666L510,436.61016949152537L765,466.6666666666667" stroke="#2ca02c" stroke-width="1" stroke-opacity="0.5"/><path d="M0,451.11111111111114L255,233.33333333333331L510,455.59322033898303L765,350" stroke="#2ca02c" stroke-width="1" stroke-opacity="0.5"/><path d="M0,482.22222222222223L255,186.6666666666666L510,484.06779661016947L765,420" stroke="#2ca02c" stroke-width="1" stroke-opacity="0.5"/><path d="M0,560L255,419.9999999999999L510,512.542372881356L765,443.3333333333333" stroke="#2ca02c" stroke-width="1" stroke-opacity="0.5"/><path d="M0,326.6666666666667L255,186.6666666666666L510,436.61016949152537L765,490.00000000000006" stroke="#2ca02c" stroke-width="1" stroke-opacity="0.5"/><path d="M0,311.1111111111111L255,186.6666666666666L510,389.1525423728813L765,326.6666666666667" stroke="#2ca02c" stroke-width="1" stroke-opacity="0.5"/><path d="M0,279.99999999999994L255,140L510,436.61016949152537L765,303.3333333333333" stroke="#2ca02c" stroke-width="1" stroke-opacity="0.5"/><path d="M0,528.8888888888889L255,233.33333333333331L510,484.06779661016947L765,513.3333333333333" stroke="#2ca02c" stroke-width="1" stroke-opacity="0.5"/><path d="M0,311.1111111111111L255,326.66666666666663L510,436.61016949152537L765,536.6666666666666" stroke="#2ca02c" stroke-width="1" stroke-opacity="0.5"/><path d="M0,326.6666666666667L255,256.66666666666663L510,427.1186440677966L765,396.6666666666667" stroke="#2ca02c" stroke-width="1" stroke-opacity="0.5"/><path d="M0,264.44444444444446L255,233.33333333333331L510,360.6779661016949L765,396.6666666666667" stroke="#2ca02c" stroke-width="1" stroke-opacity="0.5"/><path d="M0,404.44444444444446L255,256.66666666666663L510,417.6271186440678L765,466.6666666666667" stroke="#2ca02c" stroke-width="1" stroke-opacity="0.5"/><path d="M0,373.3333333333333L255,256.66666666666663L510,436.61016949152537L765,536.6666666666666" stroke="#2ca02c" stroke-width="1" stroke-opacity="0.5"/><path d="M0,404.44444444444446L255,256.66666666666663L510,389.1525423728813L765,513.3333333333333" stroke="#2ca02c" stroke-width="1" stroke-opacity="0.5"/><path d="M0,233.33333333333331L255,163.33333333333334L510,389.1525423728813L765,420" stroke="#2ca02c" stroke-width="1" stroke-opacity="0.5"/><path d="M0,388.8888888888888L255,280L510,465.08474576271186L765,513.3333333333333" stroke="#2ca02c" stroke-width="1" stroke-opacity="0.5"/><path d="M0,373.3333333333333L255,303.33333333333326L510,446.10169491525426L765,560" stroke="#2ca02c" stroke-width="1" stroke-opacity="0.5"/><path d="M0,373.3333333333333L255,233.33333333333331L510,398.64406779661016L765,513.3333333333333" stroke="#2ca02c" stroke-width="1" stroke-opacity="0.5"/><path d="M0,311.1111111111111L255,116.66666666666666L510,379.66101694915255L765,420" stroke="#2ca02c" stroke-width="1" stroke-opacity="0.5"/><path d="M0,342.2222222222222L255,233.33333333333331L510,398.64406779661016L765,443.3333333333333" stroke="#2ca02c" stroke-width="1" stroke-opacity="0.5"/><path d="M0,295.55555555555554L255,326.66666666666663L510,417.6271186440678L765,513.3333333333333" stroke="#2ca02c" stroke-width="1" stroke-opacity="0.5"/><path d="M0,248.88888888888894L255,233.33333333333331L510,389.1525423728813L765,396.6666666666667" stroke="#2ca02c" stroke-width="1" stroke-opacity="0.5"/></g><g><g transform="translate(0,0)" fill="none" font-size="10" font-family="sans-serif" text-anchor="end"><path class="domain" stroke="currentColor" d="M-6,0H0V560H-6"/><g class="tick" opacity="1" transform="translate(0,31.111111111111132)"><line stroke="currentColor" x2="-6"/><text fill="currentColor" x="-9" dy="0.32em">4.5</text></g><g class="tick" opacity="1" transform="translate(0,108.8888888888889)"><line stroke="currentColor" x2="-6"/><text fill="currentColor" x="-9" dy="0.32em">5.0</text></g><g class="tick" opacity="1" transform="translate(0,186.66666666666666)"><line stroke="currentColor" x2="-6"/><text fill="currentColor" x="-9" dy="0.32em">5.5</text></g><g class="tick" opacity="1" transform="translate(0,264.44444444444446)"><line stroke="currentColor" x2="-6"/><text fill="currentColor" x="-9" dy="0.32em">6.0</text></g><g class="tick" opacity="1" transform="translate(0,342.2222222222222)"><line stroke="currentColor" x2="-6"/><text fill="currentColor" x="-9" dy="0.32em">6.5</text></g><g class="tick" opacity="1" transform="translate(0,419.99999999999994)"><line stroke="currentColor" x2="-6"/><text fill="currentColor" x="-9" dy="0.32em">7.0</text></g><g class="tick" opacity="1" transform="translate(0,497.77777777777777)"><line stroke="currentColor" x2="-6"/><text fill="currentColor" x="-9" dy="0.32em">7.5</text></g><text y="-6" text-anchor="start" fill="currentColor">Sepal Length (cm)</text></g><g transform="translate(255,0)" fill="none" font-size="10" font-family="sans-serif" text-anchor="end"><path class="domain" stroke="currentColor" d="M-6,0H0V560H-6"/><g class="tick" opacity="1" transform="translate(0,0)"><line stroke="currentColor" x2="-6"/><text fill="currentColor" x="-9" dy="0.32em">2.0</text></g><g class="tick" opacity="1" transform="translate(0,46.6666666666667)"><line stroke="currentColor" x2="-6"/><text fill="currentColor" x="-9" dy="0.32em">2.2</text></g><g class="tick" opacity="1" transform="translate(0,93.3333333333333)"><line stroke="currentColor" x2="-6"/><text fill="currentColor" x="-9" dy="0.32em">2.4</text></g><g class="tick" opacity="1" transform="translate(0,140)"><line stroke="currentColor" x2="-6"/><text fill="currentColor" x="-9" dy="0.32em">2.6</text></g><g class="tick" opacity="1" transform="translate(0,186.6666666666666)"><line stroke="currentColor" x2="-6"/><text fill="currentColor" x="-9" dy="0.32em">2.8</text></g><g class="tick" opacity="1" transform="translate(0,233.33333333333331)"><line stroke="currentColor" x2="-6"/><text fill="currentColor" x="-9" dy="0.32em">3.0</text></g><g class="tick" opacity="1" transform="translate(0,280)"><line stroke="currentColor" x2="-6"/><text fill="currentColor" x="-9" dy="0.32em">3.2</text></g><g class="tick" opacity="1" transform="translate(0,326.66666666666663)"><line stroke="currentColor" x2="-6"/><text fill="currentColor" x="-9" dy="0.32em">3.4</text></g><g class="tick" opacity="1" transform="translate(0,373.3333333333333)"><line stroke="currentColor" x2="-6"/><text fill="currentColor" x="-9" dy="0.32em">3.6</text></g><g class="tick" opacity="1" transform="translate(0,419.9999999999999)"><line stroke="currentColor" x2="-6"/><text fill="currentColor" x="-9" dy="0.32em">3.8</text></g><g class="tick" opacity="1" transform="translate(0,466.66666666666663)"><line stroke="currentColor" x2="-6"/><text fill="currentColor" x="-9" dy="0.32em">4.0</text></g><g class="tick" opacity="1" transform="translate(0,513.3333333333333)"><line stroke="currentColor" x2="-6"/><text fill="currentColor" x="-9" dy="0.32em">4.2</text></g><g class="tick" opacity="1" transform="translate(0,560)"><line stroke="currentColor" x2="-6"/><text fill="currentColor" x="-9" dy="0.32em">4.4</text></g><text y="-6" text-anchor="start" fill="currentColor">Sepal Width (cm)</text></g><g transform="translate(510,0)" fill="none" font-size="10" font-family="sans-serif" text-anchor="end"><path class="domain" stroke="currentColor" d="M-6,0H0V560H-6"/><g class="tick" opacity="1" transform="translate(0,0)"><line stroke="currentColor" x2="-6"/><text fill="currentColor" x="-9" dy="0.32em">1.0</text></g><g class="tick" opacity="1" transform="translate(0,47.45762711864407)"><line stroke="currentColor" x2="-6"/><text fill="currentColor" x="-9" dy="0.32em">1.5</text></g><g class="tick" opacity="1" transform="translate(0,94.91525423728814)"><line stroke="currentColor" x2="-6"/><text fill="currentColor" x="-9" dy="0.32em">2.0</text></g><g class="tick" opacity="1" transform="translate(0,142.3728813559322)"><line stroke="currentColor" x2="-6"/><text fill="currentColor" x="-9" dy="0.32em">2.5</text></g><g class="tick" opacity="1" transform="translate(0,189.83050847457628)"><line stroke="currentColor" x2="-6"/><text fill="currentColor" x="-9" dy="0.32em">3.0</text></g><g class="tick" opacity="1" transform="translate(0,237.28813559322032)"><line stroke="currentColor" x2="-6"/><text fill="currentColor" x="-9" dy="0.32em">3.5</text></g><g class="tick" opacity="1" transform="translate(0,284.7457627118644)"><line stroke="currentColor" x2="-6"/><text fill="currentColor" x="-9" dy="0.32em">4.0</text></g><g class="tick" opacity="1" transform="translate(0,332.20338983050846)"><line stroke="currentColor" x2="-6"/><text fill="currentColor" x="-9" dy="0.32em">4.5</text></g><g class="tick" opacity="1" transform="translate(0,379.66101694915255)"><line stroke="currentColor" x2="-6"/><text fill="currentColor" x="-9" dy="0.32em">5.0</text></g><g class="tick" opacity="1" transform="translate(0,427.1186440677966)"><line stroke="currentColor" x2="-6"/><text fill="currentColor" x="-9" dy="0.32em">5.5</text></g><g class="tick" opacity="1" transform="translate(0,474.57627118644064)"><line stroke="currentColor" x2="-6"/><text fill="currentColor" x="-9" dy="0.32em">6.0</text></g><g class="tick" opacity="1" transform="translate(0,522.0338983050847)"><line stroke="currentColor" x2="-6"/><text fill="currentColor" x="-9" dy="0.32em">6.5</text></g><text y="-6" text-anchor="start" fill="currentColor">Petal Length (cm)</text></g><g transform="translate(765,0)" fill="none" font-size="10" font-family="sans-serif" text-anchor="end"><path class="domain" stroke="currentColor" d="M-6,0H0V560H-6"/><g class="tick" opacity="1" transform="translate(0,23.333333333333336)"><line stroke="currentColor" x2="-6"/><text fill="currentColor" x="-9" dy="0.32em">0.2</text></g><g class="tick" opacity="1" transform="translate(0,70.00000000000001)"><line stroke="currentColor" x2="-6"/><text fill="currentColor" x="-9" dy="0.32em">0.4</text></g><g class="tick" opacity="1" transform="translate(0,116.66666666666667)"><line stroke="currentColor" x2="-6"/><text fill="currentColor" x="-9" dy="0.32em">0.6</text></g><g class="tick" opacity="1" transform="translate(0,163.33333333333334)"><line stroke="currentColor" x2="-6"/><text fill="currentColor" x="-9" dy="0.32em">0.8</text></g><g class="tick" opacity="1" transform="translate(0,210)"><line stroke="currentColor" x2="-6"/><text fill="currentColor" x="-9" dy="0.32em">1.0</text></g><g class="tick" opacity="1" transform="translate(0,256.66666666666663)"><line stroke="currentColor" x2="-6"/><text fill="currentColor" x="-9" dy="0.32em">1.2</text></g><g class="tick" opacity="1" transform="translate(0,303.3333333333333)"><line stroke="currentColor" x2="-6"/><text fill="currentColor" x="-9" dy="0.32em">1.4</text></g><g class="tick" opacity="1" transform="translate(0,350)"><line stroke="currentColor" x2="-6"/><text fill="currentColor" x="-9" dy="0.32em">1.6</text></g><g class="tick" opacity="1" transform="translate(0,396.6666666666667)"><line stroke="currentColor" x2="-6"/><text fill="currentColor" x="-9" dy="0.32em">1.8</text></g><g class="tick" opacity="1" transform="translate(0,443.3333333333333)"><line stroke="currentColor" x2="-6"/><text fill="currentColor" x="-9" dy="0.32em">2.0</text></g><g class="tick" opacity="1" transform="translate(0,490.00000000000006)"><line stroke="currentColor" x2="-6"/><text fill="currentColor" x="-9" dy="0.32em">2.2</text></g><g class="tick" opacity="1" transform="translate(0,536.6666666666666)"><line stroke="currentColor" x2="-6"/><text fill="currentColor" x="-9" dy="0.32em">2.4</text></g><text y="-6" text-anchor="start" fill="currentColor">Petal Width (cm)</text></g></g></g></svg>