<svg xmlns="http://www.w3.org/2000/svg" width="805" height="600"><rect width="805" height="600" x="0" y="0" fill="#FFFFFF" id="background"/><g id="viz" transform="translate(33,20)"><g id="lines" fill="none"><path d="M0,125.33333333333329L239,352.49999999999994L478,38.23728813559321L717,23.500000000000004" stroke="#1f77b4" stroke-width="1" stroke-opacity="0.5"/><path d="M0,94.00000000000007L239,234.99999999999997L478,38.23728813559321L717,23.500000000000004" stroke="#1f77b4" stroke-width="1" stroke-opacity="0.5"/><path d="M0,62.66666666666671L239,282L478,28.677966101694917L717,23.500000000000004" stroke="#1f77b4" stroke-width="1" stroke-opacity="0.5"/><path d="M0,46.999999999999964L239,258.5L478,47.79661016949152L717,23.500000000000004" stroke="#1f77b4" stroke-width="1" stroke-opacity="0.5"/><path d="M0,109.66666666666669L239,376L478,38.23728813559321L717,23.500000000000004" stroke="#1f77b4" stroke-width="1" stroke-opacity="0.5"/><path d="M0,172.33333333333337L239,446.49999999999994L478,66.91525423728812L717,70.50000000000001" stroke="#1f77b4" stroke-width="1" stroke-opacity="0.5"/><path d="M0,46.999999999999964L239,328.99999999999994L478,38.23728813559321L717,47" stroke="#1f77b4" stroke-width="1" stroke-opacity="0.5"/><path d="M0,109.66666666666669L239,328.99999999999994L478,47.79661016949152L717,23.500000000000004" stroke="#1f77b4" stroke-width="1" stroke-opacity="0.5"/><path d="M0,15.666666666666748L239,211.49999999999994L478,38.23728813559321L717,23.500000000000004" stroke="#1f77b4" stroke-width="1" stroke-opacity="0.5"/><path d="M0,94.00000000000007L239,258.5L478,47.79661016949152L717,0" stroke="#1f77b4" stroke-width="1" stroke-opacity="0.5"/><path d="M0,172.33333333333337L239,399.49999999999994L478,47.79661016949152L717,23.500000000000004" stroke="#1f77b4" stroke-width="1" stroke-opacity="0.5"/><path d="M0,78.33333333333331L239,328.99999999999994L478,57.355932203389834L717,23.500000000000004" stroke="#1f77b4" stroke-width="1" stroke-opacity="0.5"/><path d="M0,78.33333333333331L239,234.99999999999997L478,38.23728813559321L717,0" stroke="#1f77b4" stroke-width="1" stroke-opacity="0.5"/><path d="M0,0L239,234.99999999999997L478,9.559322033898313L717,0" stroke="#1f77b4" stroke-width="1" stroke-opacity="0.5"/><path d="M0,234.99999999999997L239,469.99999999999994L478,19.118644067796605L717,23.500000000000004" stroke="#1f77b4" stroke-width="1" stroke-opacity="0.5"/><path d="M0,219.33333333333337L239,564L478,47.79661016949152L717,70.50000000000001" stroke="#1f77b4" stroke-width="1" stroke-opacity="0.5"/><path d="M0,172.33333333333337L239,446.49999999999994L478,28.677966101694917L717,70.50000000000001" stroke="#1f77b4" stroke-width="1" stroke-opacity="0.5"/><path d="M0,125.33333333333329L239,352.49999999999994L478,38.23728813559321L717,47" stroke="#1f77b4" stroke-width="1" stroke-opacity="0.5"/><path d="M0,219.33333333333337L239,422.9999999999999L478,66.91525423728812L717,47" stroke="#1f77b4" stroke-width="1" stroke-opacity="0.5"/><path d="M0,125.33333333333329L239,422.9999999999999L478,47.79661016949152L717,47" stroke="#1f77b4" stroke-width="1" stroke-opacity="0.5"/><path d="M0,172.33333333333337L239,328.99999999999994L478,66.91525423728812L717,23.500000000000004" stroke="#1f77b4" stroke-width="1" stroke-opacity="0.5"/><path d="M0,125.33333333333329L239,399.49999999999994L478,47.79661016949152L717,70.50000000000001" stroke="#1f77b4" stroke-width="1" stroke-opacity="0.5"/><path d="M0,46.999999999999964L239,376L478,0L717,23.500000000000004" stroke="#1f77b4" stroke-width="1" stroke-opacity="0.5"/><path d="M0,125.33333333333329L239,305.49999999999994L478,66.91525423728812L717,94.00000000000001" stroke="#1f77b4" stroke-width="1" stroke-opacity="0.5"/><path d="M0,78.33333333333331L239,328.99999999999994L478,86.03389830508473L717,23.500000000000004" stroke="#1f77b4" stroke-width="1" stroke-opacity="0.5"/><path d="M0,109.66666666666669L239,234.99999999999997L478,57.355932203389834L717,23.500000000000004" stroke="#1f77b4" stroke-width="1" stroke-opacity="0.5"/><path d="M0,109.66666666666669L239,328.99999999999994L478,57.355932203389834L717,70.50000000000001" stroke="#1f77b4" stroke-width="1" stroke-opacity="0.5"/><path d="M0,141.00000000000003L239,352.49999999999994L478,47.79661016949152L717,23.500000000000004" stroke="#1f77b4" stroke-width="1" stroke-opacity="0.5"/><path d="M0,141.00000000000003L239,328.99999999999994L478,38.23728813559321L717,23.500000000000004" stroke="#1f77b4" stroke-width="1" stroke-opacity="0.5"/><path d="M0,62.66666666666671L239,282L478,57.355932203389834L717,23.500000000000004" stroke="#1f77b4" stroke-width="1" stroke-opacity="0.5"/><path d="M0,78.33333333333331L239,258.5L478,57.355932203389834L717,23.500000000000004" stroke="#1f77b4" stroke-width="1" stroke-opacity="0.5"/><path d="M0,172.33333333333337L239,328.99999999999994L478,47.79661016949152L717,70.50000000000001" stroke="#1f77b4" stroke-width="1" stroke-opacity="0.5"/><path d="M0,141.00000000000003L239,493.4999999999999L478,47.79661016949152L717,0" stroke="#1f77b4" stroke-width="1" stroke-opacity="0.5"/><path d="M0,188L239,517L478,38.23728813559321L717,23.500000000000004" stroke="#1f77b4" stroke-width="1" stroke-opacity="0.5"/><path d="M0,94.00000000000007L239,258.5L478,47.79661016949152L717,0" stroke="#1f77b4" stroke-width="1" stroke-opacity="0.5"/><path d="M0,109.66666666666669L239,282L478,19.118644067796605L717,23.500000000000004" stroke="#1f77b4" stroke-width="1" stroke-opacity="0.5"/><path d="M0,188L239,352.49999999999994L478,28.677966101694917L717,23.500000000000004" stroke="#1f77b4" stroke-width="1" stroke-opacity="0.5"/><path d="M0,94.00000000000007L239,258.5L478,47.79661016949152L717,0" stroke="#1f77b4" stroke-width="1" stroke-opacity="0.5"/><path d="M0,15.666666666666748L239,234.99999999999997L478,28.677966101694917L717,23.500000000000004" stroke="#1f77b4" stroke-width="1" stroke-opacity="0.5"/><path d="M0,125.33333333333329L239,328.99999999999994L478,47.79661016949152L717,23.500000000000004" stroke="#1f77b4" stroke-width="1" stroke-opacity="0.5"/><path d="M0,109.66666666666669L239,352.49999999999994L478,28.677966101694917L717,47" stroke="#1f77b4" stroke-width="1" stroke-opacity="0.5"/><path d="M0,31.333333333333353L239,70.49999999999994L478,28.677966101694917L717,47" stroke="#1f77b4" stroke-width="1" stroke-opacity="0.5"/><path d="M0,15.666666666666748L239,282L478,28.677966101694917L717,23.500000000000004" stroke="#1f77b4" stroke-width="1" stroke-opacity="0.5"/><path d="M0,109.66666666666669L239,352.49999999999994L478,57.355932203389834L717,117.5" stroke="#1f77b4" stroke-width="1" stroke-opacity="0.5"/><path d="M0,125.33333333333329L239,422.9999999999999L478,86.03389830508473L717,70.50000000000001" stroke="#1f77b4" stroke-width="1" stroke-opacity="0.5"/><path d="M0,78.33333333333331L239,234.99999999999997L478,38.23728813559321L717,47" stroke="#1f77b4" stroke-width="1" stroke-opacity="0.5"/><path d="M0,125.33333333333329L239,422.9999999999999L478,57.355932203389834L717,23.500000000000004" stroke="#1f77b4" stroke-width="1" stroke-opacity="0.5"/><path d="M0,46.999999999999964L239,282L478,38.23728813559321L717,23.500000000000004" stroke="#1f77b4" stroke-width="1" stroke-opacity="0.5"/><path d="M0,156.66666666666663L239,399.49999999999994L478,47.79661016949152L717,23.500000000000004" stroke="#1f77b4" stroke-width="1" stroke-opacity="0.5"/><path d="M0,109.66666666666669L239,305.49999999999994L478,38.23728813559321L717,23.500000000000004" stroke="#1f77b4" stroke-width="1" stroke-opacity="0.5"/><path d="M0,422.99999999999994L239,282L478,353.6949152542373L717,305.5" stroke="#ff7f0e" stroke-width="1" stroke-opacity="0.5"/><path d="M0,329L239,282L478,334.57627118644064L717,329" stroke="#ff7f0e" stroke-width="1" stroke-opacity="0.5"/><path d="M0,407.3333333333333L239,258.5L478,372.8135593220339L717,329" stroke="#ff7f0e" stroke-width="1" stroke-opacity="0.5"/><path d="M0,188L239,70.49999999999994L478,286.77966101694915L717,282" stroke="#ff7f0e" stroke-width="1" stroke-opacity="0.5"/><path d="M0,344.66666666666663L239,187.99999999999991L478,344.13559322033893L717,329" stroke="#ff7f0e" stroke-width="1" stroke-opacity="0.5"/><path d="M0,219.33333333333337L239,187.99999999999991L478,334.57627118644064L717,282" stroke="#ff7f0e" stroke-width="1" stroke-opacity="0.5"/><path d="M0,313.33333333333326L239,305.49999999999994L478,353.6949152542373L717,352.5" stroke="#ff7f0e" stroke-width="1" stroke-opacity="0.5"/><path d="M0,94.00000000000007L239,93.99999999999996L478,219.86440677966098L717,211.5" stroke="#ff7f0e" stroke-width="1" stroke-opacity="0.5"/><path d="M0,360.33333333333326L239,211.49999999999994L478,344.13559322033893L717,282" stroke="#ff7f0e" stroke-width="1" stroke-opacity="0.5"/><path d="M0,141.00000000000003L239,164.5L478,277.22033898305085L717,305.5" stroke="#ff7f0e" stroke-width="1" stroke-opacity="0.5"/><path d="M0,109.66666666666669L239,0L478,238.9830508474576L717,211.5" stroke="#ff7f0e" stroke-width="1" stroke-opacity="0.5"/><path d="M0,250.6666666666667L239,234.99999999999997L478,305.89830508474574L717,329" stroke="#ff7f0e" stroke-width="1" stroke-opacity="0.5"/><path d="M0,266.3333333333333L239,47.000000000000036L478,286.77966101694915L717,211.5" stroke="#ff7f0e" stroke-width="1" stroke-opacity="0.5"/><path d="M0,281.99999999999994L239,211.49999999999994L478,353.6949152542373L717,305.5" stroke="#ff7f0e" stroke-width="1" stroke-opacity="0.5"/><path d="M0,203.6666666666666L239,211.49999999999994L478,248.54237288135593L717,282" stroke="#ff7f0e" stroke-width="1" stroke-opacity="0.5"/><path d="M0,376L239,258.5L478,325.0169491525424L717,305.5" stroke="#ff7f0e" stroke-width="1" stroke-opacity="0.5"/><path d="M0,203.6666666666666L239,234.99999999999997L478,334.57627118644064L717,329" stroke="#ff7f0e" stroke-width="1" stroke-opacity="0.5"/><path d="M0,234.99999999999997L239,164.5L478,296.33898305084745L717,211.5" stroke="#ff7f0e" stroke-width="1" stroke-opacity="0.5"/><path d="M0,297.6666666666667L239,47.000000000000036L478,334.57627118644064L717,329" stroke="#ff7f0e" stroke-width="1" stroke-opacity="0.5"/><path d="M0,203.6666666666666L239,117.49999999999999L478,277.22033898305085L717,235" stroke="#ff7f0e" stroke-width="1" stroke-opacity="0.5"/><path d="M0,250.6666666666667L239,282L478,363.2542372881356L717,399.5" stroke="#ff7f0e" stroke-width="1" stroke-opacity="0.5"/><path d="M0,281.99999999999994L239,187.99999999999991L478,286.77966101694915L717,282" stroke="#ff7f0e" stroke-width="1" stroke-opacity="0.5"/><path d="M0,313.33333333333326L239,117.49999999999999L478,372.8135593220339L717,329" stroke="#ff7f0e" stroke-width="1" stroke-opacity="0.5"/><path d="M0,281.99999999999994L239,187.99999999999991L478,353.6949152542373L717,258.5" stroke="#ff7f0e" stroke-width="1" stroke-opacity="0.5"/><path d="M0,329L239,211.49999999999994L478,315.45762711864404L717,282" stroke="#ff7f0e" stroke-width="1" stroke-opacity="0.5"/><path d="M0,360.33333333333326L239,234.99999999999997L478,325.0169491525424L717,305.5" stroke="#ff7f0e" stroke-width="1" stroke-opacity="0.5"/><path d="M0,391.6666666666666L239,187.99999999999991L478,363.2542372881356L717,305.5" stroke="#ff7f0e" stroke-width="1" stroke-opacity="0.5"/><path d="M0,376L239,234.99999999999997L478,382.3728813559322L717,376" stroke="#ff7f0e" stroke-width="1" stroke-opacity="0.5"/><path d="M0,266.3333333333333L239,211.49999999999994L478,334.57627118644064L717,329" stroke="#ff7f0e" stroke-width="1" stroke-opacity="0.5"/><path d="M0,219.33333333333337L239,141L478,238.9830508474576L717,211.5" stroke="#ff7f0e" stroke-width="1" stroke-opacity="0.5"/><path d="M0,188L239,93.99999999999996L478,267.6610169491525L717,235" stroke="#ff7f0e" stroke-width="1" stroke-opacity="0.5"/><path d="M0,188L239,93.99999999999996L478,258.10169491525426L717,211.5" stroke="#ff7f0e" stroke-width="1" stroke-opacity="0.5"/><path d="M0,234.99999999999997L239,164.5L478,277.22033898305085L717,258.5" stroke="#ff7f0e" stroke-width="1" stroke-opacity="0.5"/><path d="M0,266.3333333333333L239,164.5L478,391.9322033898305L717,352.5" stroke="#ff7f0e" stroke-width="1" stroke-opacity="0.5"/><path d="M0,172.33333333333337L239,234.99999999999997L478,334.57627118644064L717,329" stroke="#ff7f0e" stroke-width="1" stroke-opacity="0.5"/><path d="M0,266.3333333333333L239,328.99999999999994L478,334.57627118644064L717,352.5" stroke="#ff7f0e" stroke-width="1" stroke-opacity="0.5"/><path d="M0,376L239,258.5L478,353.6949152542373L717,329" stroke="#ff7f0e" stroke-width="1" stroke-opacity="0.5"/><path d="M0,313.33333333333326L239,70.49999999999994L478,325.0169491525424L717,282" stroke="#ff7f0e" stroke-width="1" stroke-opacity="0.5"/><path d="M0,203.6666666666666L239,234.99999999999997L478,296.33898305084745L717,282" stroke="#ff7f0e" stroke-width="1" stroke-opacity="0.5"/><path d="M0,188L239,117.49999999999999L478,286.77966101694915L717,282" stroke="#ff7f0e" stroke-width="1" stroke-opacity="0.5"/><path d="M0,188L239,141L478,325.0169491525424L717,258.5" stroke="#ff7f0e" stroke-width="1" stroke-opacity="0.5"/><path d="M0,281.99999999999994L239,234.99999999999997L478,344.13559322033893L717,305.5" stroke="#ff7f0e" stroke-width="1" stroke-opacity="0.5"/><path d="M0,234.99999999999997L239,141L478,286.77966101694915L717,258.5" stroke="#ff7f0e" stroke-width="1" stroke-opacity="0.5"/><path d="M0,109.66666666666669L239,70.49999999999994L478,219.86440677966098L717,211.5" stroke="#ff7f0e" stroke-width="1" stroke-opacity="0.5"/><path d="M0,203.6666666666666L239,164.5L478,305.89830508474574L717,282" stroke="#ff7f0e" stroke-width="1" stroke-opacity="0.5"/><path d="M0,219.33333333333337L239,234.99999999999997L478,305.89830508474574L717,258.5" stroke="#ff7f0e" stroke-width="1" stroke-opacity="0.5"/><path d="M0,219.33333333333337L239,211.49999999999994L478,305.89830508474574L717,282" stroke="#ff7f0e" stroke-width="1" stroke-opacity="0.5"/><path d="M0,297.6666666666667L239,211.49999999999994L478,315.45762711864404L717,282" stroke="#ff7f0e" stroke-width="1" stroke-opacity="0.5"/><path d="M0,125.33333333333329L239,117.49999999999999L478,191.1864406779661L717,235" stroke="#ff7f0e" stroke-width="1" stroke-opacity="0.5"/><path d="M0,219.33333333333337L239,187.99999999999991L478,296.33898305084745L717,282" stroke="#ff7f0e" stroke-width="1" stroke-opacity="0.5"/><path d="M0,313.33333333333326L239,305.49999999999994L478,477.9661016949152L717,564" stroke="#2ca02c" stroke-width="1" stroke-opacity="0.5"/><path d="M0,234.99999999999997L239,164.5L478,391.9322033898305L717,423" stroke="#2ca02c" stroke-width="1" stroke-opacity="0.5"/><path d="M0,438.6666666666666L239,234.99999999999997L478,468.40677966101697L717,470" stroke="#2ca02c" stroke-width="1" stroke-opacity="0.5"/><path d="M0,313.33333333333326L239,211.49999999999994L478,439.72881355932196L717,399.5" stroke="#2ca02c" stroke-width="1" stroke-opacity="0.5"/><path d="M0,344.66666666666663L239,234.99999999999997L478,458.8474576271186L717,493.50000000000006" stroke="#2ca02c" stroke-width="1" stroke-opacity="0.5"/><path d="M0,516.9999999999999L239,234.99999999999997L478,535.322033898305L717,470" stroke="#2ca02c" stroke-width="1" stroke-opacity="0.5"/><path d="M0,94.00000000000007L239,117.49999999999999L478,334.57627118644064L717,376" stroke="#2ca02c" stroke-width="1" stroke-opacity="0.5"/><path d="M0,469.99999999999994L239,211.49999999999994L478,506.64406779661016L717,399.5" stroke="#2ca02c" stroke-width="1" stroke-opacity="0.5"/><path d="M0,376L239,117.49999999999999L478,458.8474576271186L717,399.5" stroke="#2ca02c" stroke-width="1" stroke-opacity="0.5"/><path d="M0,454.33333333333337L239,376L478,487.5254237288135L717,564" stroke="#2ca02c" stroke-width="1" stroke-opacity="0.5"/><path d="M0,344.66666666666663L239,282L478,391.9322033898305L717,446.5" stroke="#2ca02c" stroke-width="1" stroke-opacity="0.5"/><path d="M0,329L239,164.5L478,411.05084745762707L717,423" stroke="#2ca02c" stroke-width="1" stroke-opacity="0.5"/><path d="M0,391.6666666666666L239,234.99999999999997L478,430.1694915254237L717,470" stroke="#2ca02c" stroke-width="1" stroke-opacity="0.5"/><path d="M0,219.33333333333337L239,117.49999999999999L478,382.3728813559322L717,446.5" stroke="#2ca02c" stroke-width="1" stroke-opacity="0.5"/><path d="M0,234.99999999999997L239,187.99999999999991L478,391.9322033898305L717,540.5" stroke="#2ca02c" stroke-width="1" stroke-opacity="0.5"/><path d="M0,329L239,282L478,411.05084745762707L717,517" stroke="#2ca02c" stroke-width="1" stroke-opacity="0.5"/><path d="M0,344.66666666666663L239,234.99999999999997L478,430.1694915254237L717,399.5" stroke="#2ca02c" stroke-width="1" stroke-opacity="0.5"/><path d="M0,532.6666666666666L239,422.9999999999999L478,544.8813559322034L717,493.50000000000006" stroke="#2ca02c" stroke-width="1" stroke-opacity="0.5"/><path d="M0,532.6666666666666L239,141L478,564L717,517" stroke="#2ca02c" stroke-width="1" stroke-opacity="0.5"/><path d="M0,266.3333333333333L239,47.000000000000036L478,382.3728813559322L717,329" stroke="#2ca02c" stroke-width="1" stroke-opacity="0.5"/><path d="M0,407.3333333333333L239,282L478,449.2881355932203L717,517" stroke="#2ca02c" stroke-width="1" stroke-opacity="0.5"/><path d="M0,203.6666666666666L239,187.99999999999991L478,372.8135593220339L717,446.5" stroke="#2ca02c" stroke-width="1" stroke-opacity="0.5"/><path d="M0,532.6666666666666L239,187.99999999999991L478,544.8813559322034L717,446.5" stroke="#2ca02c" stroke-width="1" stroke-opacity="0.5"/><path d="M0,313.33333333333326L239,164.5L478,372.8135593220339L717,399.5" stroke="#2ca02c" stroke-width="1" stroke-opacity="0.5"/><path d="M0,376L239,305.49999999999994L478,449.2881355932203L717,470" stroke="#2ca02c" stroke-width="1" stroke-opacity="0.5"/><path d="M0,454.33333333333337L239,282L478,477.9661016949152L717,399.5" stroke="#2ca02c" stroke-width="1" stroke-opacity="0.5"/><path d="M0,297.6666666666667L239,187.99999999999991L478,363.2542372881356L717,399.5" stroke="#2ca02c" stroke-width="1" stroke-opacity="0.5"/><path d="M0,281.99999999999994L239,234.99999999999997L478,372.8135593220339L717,399.5" stroke="#2ca02c" stroke-width="1" stroke-opacity="0.5"/><path d="M0,329L239,187.99999999999991L478,439.72881355932196L717,470" stroke="#2ca02c" stroke-width="1" stroke-opacity="0.5"/><path d="M0,454.33333333333337L239,234.99999999999997L478,458.8474576271186L717,352.5" stroke="#2ca02c" stroke-width="1" stroke-opacity="0.5"/><path d="M0,485.6666666666667L239,187.99999999999991L478,487.5254237288135L717,423" stroke="#2ca02c" stroke-width="1" stroke-opacity="0.5"/><path d="M0,564L239,422.9999999999999L478,516.2033898305085L717,446.5" stroke="#2ca02c" stroke-width="1" stroke-opacity="0.5"/><path d="M0,329L239,187.99999999999991L478,439.72881355932196L717,493.50000000000006" stroke="#2ca02c" stroke-width="1" stroke-opacity="0.5"/><path d="M0,313.33333333333326L239,187.99999999999991L478,391.9322033898305L717,329" stroke="#2ca02c" stroke-width="1" stroke-opacity="0.5"/><path d="M0,281.99999999999994L239,141L478,439.72881355932196L717,305.5" stroke="#2ca02c" stroke-width="1" stroke-opacity="0.5"/><path d="M0,532.6666666666666L239,234.99999999999997L478,487.5254237288135L717,517" stroke="#2ca02c" stroke-width="1" stroke-opacity="0.5"/><path d="M0,313.33333333333326L239,328.99999999999994L478,439.72881355932196L717,540.5" stroke="#2ca02c" stroke-width="1" stroke-opacity="0.5"/><path d="M0,329L239,258.5L478,430.1694915254237L717,399.5" stroke="#2ca02c" stroke-width="1" stroke-opacity="0.5"/><path d="M0,266.3333333333333L239,234.99999999999997L478,363.2542372881356L717,399.5" stroke="#2ca02c" stroke-width="1" stroke-opacity="0.5"/><path d="M0,407.3333333333333L239,258.5L478,420.6101694915254L717,470" stroke="#2ca02c" stroke-width="1" stroke-opacity="0.5"/><path d="M0,376L239,258.5L478,439.72881355932196L717,540.5" stroke="#2ca02c" stroke-width="1" stroke-opacity="0.5"/><path d="M0,407.3333333333333L239,258.5L478,391.9322033898305L717,517" stroke="#2ca02c" stroke-width="1" stroke-opacity="0.5"/><path d="M0,234.99999999999997L239,164.5L478,391.9322033898305L717,423" stroke="#2ca02c" stroke-width="1" stroke-opacity="0.5"/><path d="M0,391.6666666666666L239,282L478,468.40677966101697L717,517" stroke="#2ca02c" stroke-width="1" stroke-opacity="0.5"/><path d="M0,376L239,305.49999999999994L478,449.2881355932203L717,564" stroke="#2ca02c" stroke-width="1" stroke-opacity="0.5"/><path d="M0,376L239,234.99999999999997L478,401.49152542372883L717,517" stroke="#2ca02c" stroke-width="1" stroke-opacity="0.5"/><path d="M0,313.33333333333326L239,117.49999999999999L478,382.3728813559322L717,423" stroke="#2ca02c" stroke-width="1" stroke-opacity="0.5"/><path d="M0,344.66666666666663L239,234.99999999999997L478,401.49152542372883L717,446.5" stroke="#2ca02c" stroke-width="1" stroke-opacity="0.5"/><path d="M0,297.6666666666667L239,328.99999999999994L478,420.6101694915254L717,517" stroke="#2ca02c" stroke-width="1" stroke-opacity="0.5"/><path d="M0,250.6666666666667L239,234.99999999999997L478,391.9322033898305L717,399.5" stroke="#2ca02c" stroke-width="1" stroke-opacity="0.5"/></g><g><g transform="translate(0,0)" fill="none" font-size="10" font-family="sans-serif" text-anchor="end"><path class="domain" stroke="currentColor" d="M-6,0H0V564H-6"/><g class="tick" opacity="1" transform="translate(0,31.333333333333353)"><line stroke="currentColor" x2="-6"/><text fill="currentColor" x="-9" dy="0.32em">4.5</text></g><g class="tick" opacity="1" transform="translate(0,109.66666666666669)"><line stroke="currentColor" x2="-6"/><text fill="currentColor" x="-9" dy="0.32em">5.0</text></g><g class="tick" opacity="1" transform="translate(0,188)"><line stroke="currentColor" x2="-6"/><text fill="currentColor" x="-9" dy="0.32em">5.5</text></g><g class="tick" opacity="1" transform="translate(0,266.3333333333333)"><line stroke="currentColor" x2="-6"/><text fill="currentColor" x="-9" dy="0.32em">6.0</text></g><g class="tick" opacity="1" transform="translate(0,344.66666666666663)"><line stroke="currentColor" x2="-6"/><text fill="currentColor" x="-9" dy="0.32em">6.5</text></g><g class="tick" opacity="1" transform="translate(0,422.99999999999994)"><line stroke="currentColor" x2="-6"/><text fill="currentColor" x="-9" dy="0.32em">7.0</text></g><g class="tick" opacity="1" transform="translate(0,501.3333333333333)"><line stroke="currentColor" x2="-6"/><text fill="currentColor" x="-9" dy="0.32em">7.5</text></g><text y="-6" text-anchor="start" fill="currentColor">Sepal Length (cm)</text></g><g transform="translate(239,0)" fill="none" font-size="10" font-family="sans-serif" text-anchor="end"><path class="domain" stroke="currentColor" d="M-6,0H0V564H-6"/><g class="tick" opacity="1" transform="translate(0,0)"><line stroke="currentColor" x2="-6"/><text fill="currentColor" x="-9" dy="0.32em">2.0</text></g><g class="tick" opacity="1" transform="translate(0,47.000000000000036)"><line stroke="currentColor" x2="-6"/><text fill="currentColor" x="-9" dy="0.32em">2.2</text></g><g class="tick" opacity="1" transform="translate(0,93.99999999999996)"><line stroke="currentColor" x2="-6"/><text fill="currentColor" x="-9" dy="0.32em">2.4</text></g><g class="tick" opacity="1" transform="translate(0,141)"><line stroke="currentColor" x2="-6"/><text fill="currentColor" x="-9" dy="0.32em">2.6</text></g><g class="tick" opacity="1" transform="translate(0,187.99999999999991)"><line stroke="currentColor" x2="-6"/><text fill="currentColor" x="-9" dy="0.32em">2.8</text></g><g class="tick" opacity="1" transform="translate(0,234.99999999999997)"><line stroke="currentColor" x2="-6"/><text fill="currentColor" x="-9" dy="0.32em">3.0</text></g><g class="tick" opacity="1" transform="translate(0,282)"><line stroke="currentColor" x2="-6"/><text fill="currentColor" x="-9" dy="0.32em">3.2</text></g><g class="tick" opacity="1" transform="translate(0,328.99999999999994)"><line stroke="currentColor" x2="-6"/><text fill="currentColor" x="-9" dy="0.32em">3.4</text></g><g class="tick" opacity="1" transform="translate(0,376)"><line stroke="currentColor" x2="-6"/><text fill="currentColor" x="-9" dy="0.32em">3.6</text></g><g class="tick" opacity="1" transform="translate(0,422.9999999999999)"><line stroke="currentColor" x2="-6"/><text fill="currentColor" x="-9" dy="0.32em">3.8</text></g><g class="tick" opacity="1" transform="translate(0,469.99999999999994)"><line stroke="currentColor" x2="-6"/><text fill="currentColor" x="-9" dy="0.32em">4.0</text></g><g class="tick" opacity="1" transform="translate(0,517)"><line stroke="currentColor" x2="-6"/><text fill="currentColor" x="-9" dy="0.32em">4.2</text></g><g class="tick" opacity="1" transform="translate(0,564)"><line stroke="currentColor" x2="-6"/><text fill="currentColor" x="-9" dy="0.32em">4.4</text></g><text y="-6" text-anchor="start" fill="currentColor">Sepal Width (cm)</text></g><g transform="translate(478,0)" fill="none" font-size="10" font-family="sans-serif" text-anchor="end"><path class="domain" stroke="currentColor" d="M-6,0H0V564H-6"/><g class="tick" opacity="1" transform="translate(0,0)"><line stroke="currentColor" x2="-6"/><text fill="currentColor" x="-9" dy="0.32em">1.0</text></g><g class="tick" opacity="1" transform="translate(0,47.79661016949152)"><line stroke="currentColor" x2="-6"/><text fill="currentColor" x="-9" dy="0.32em">1.5</text></g><g class="tick" opacity="1" transform="translate(0,95.59322033898304)"><line stroke="currentColor" x2="-6"/><text fill="currentColor" x="-9" dy="0.32em">2.0</text></g><g class="tick" opacity="1" transform="translate(0,143.38983050847457)"><line stroke="currentColor" x2="-6"/><text fill="currentColor" x="-9" dy="0.32em">2.5</text></g><g class="tick" opacity="1" transform="translate(0,191.1864406779661)"><line stroke="currentColor" x2="-6"/><text fill="currentColor" x="-9" dy="0.32em">3.0</text></g><g class="tick" opacity="1" transform="translate(0,238.9830508474576)"><line stroke="currentColor" x2="-6"/><text fill="currentColor" x="-9" dy="0.32em">3.5</text></g><g class="tick" opacity="1" transform="translate(0,286.77966101694915)"><line stroke="currentColor" x2="-6"/><text fill="currentColor" x="-9" dy="0.32em">4.0</text></g><g class="tick" opacity="1" transform="translate(0,334.57627118644064)"><line stroke="currentColor" x2="-6"/><text fill="currentColor" x="-9" dy="0.32em">4.5</text></g><g class="tick" opacity="1" transform="translate(0,382.3728813559322)"><line stroke="currentColor" x2="-6"/><text fill="currentColor" x="-9" dy="0.32em">5.0</text></g><g class="tick" opacity="1" transform="translate(0,430.1694915254237)"><line stroke="currentColor" x2="-6"/><text fill="currentColor" x="-9" dy="0.32em">5.5</text></g><g class="tick" opacity="1" transform="translate(0,477.9661016949152)"><line stroke="currentColor" x2="-6"/><text fill="currentColor" x="-9" dy="0.32em">6.0</text></g><g class="tick" opacity="1" transform="translate(0,525.7627118644068)"><line stroke="currentColor" x2="-6"/><text fill="currentColor" x="-9" dy="0.32em">6.5</text></g><text y="-6" text-anchor="start" fill="currentColor">Petal Length (cm)</text></g><g transform="translate(717,0)" fill="none" font-size="10" font-family="sans-serif" text-anchor="end"><path class="domain" stroke="currentColor" d="M-6,0H0V564H-6"/><g class="tick" opacity="1" transform="translate(0,23.500000000000004)"><line stroke="currentColor" x2="-6"/><text fill="currentColor" x="-9" dy="0.32em">0.2</text></g><g class="tick" opacity="1" transform="translate(0,70.50000000000001)"><line stroke="currentColor" x2="-6"/><text fill="currentColor" x="-9" dy="0.32em">0.4</text></g><g class="tick" opacity="1" transform="translate(0,117.5)"><line stroke="currentColor" x2="-6"/><text fill="currentColor" x="-9" dy="0.32em">0.6</text></g><g class="tick" opacity="1" transform="translate(0,164.5)"><line stroke="currentColor" x2="-6"/><text fill="currentColor" x="-9" dy="0.32em">0.8</text></g><g class="tick" opacity="1" transform="translate(0,211.5)"><line stroke="currentColor" x2="-6"/><text fill="currentColor" x="-9" dy="0.32em">1.0</text></g><g class="tick" opacity="1" transform="translate(0,258.5)"><line stroke="currentColor" x2="-6"/><text fill="currentColor" x="-9" dy="0.32em">1.2</text></g><g class="tick" opacity="1" transform="translate(0,305.5)"><line stroke="currentColor" x2="-6"/><text fill="currentColor" x="-9" dy="0.32em">1.4</text></g><g class="tick" opacity="1" transform="translate(0,352.5)"><line stroke="currentColor" x2="-6"/><text fill="currentColor" x="-9" dy="0.32em">1.6</text></g><g class="tick" opacity="1" transform="translate(0,399.5)"><line stroke="currentColor" x2="-6"/><text fill="currentColor" x="-9" dy="0.32em">1.8</text></g><g class="tick" opacity="1" transform="translate(0,446.5)"><line stroke="currentColor" x2="-6"/><text fill="currentColor" x="-9" dy="0.32em">2.0</text></g><g class="tick" opacity="1" transform="translate(0,493.50000000000006)"><line stroke="currentColor" x2="-6"/><text fill="currentColor" x="-9" dy="0.32em">2.2</text></g><g class="tick" opacity="1" transform="translate(0,540.5)"><line stroke="currentColor" x2="-6"/><text fill="currentColor" x="-9" dy="0.32em">2.4</text></g><text y="-6" text-anchor="start" fill="currentColor">Petal Width (cm)</text></g></g></g></svg>